solid Default
  facet normal -1.000000e+00 -0.000000e+00 -0.000000e+00
    outer loop
      vertex 6.884592e+00 4.741996e+00 3.000000e+00
      vertex 6.884592e+00 4.741996e+00 0.000000e+00
      vertex 6.884592e+00 -1.435015e+01 3.000000e+00
    endloop
  endfacet
  facet normal -1.000000e+00 0.000000e+00 0.000000e+00
    outer loop
      vertex 6.884592e+00 4.741996e+00 0.000000e+00
      vertex 6.884592e+00 -1.435015e+01 0.000000e+00
      vertex 6.884592e+00 -1.435015e+01 3.000000e+00
    endloop
  endfacet
  facet normal 0.000000e+00 1.000000e+00 0.000000e+00
    outer loop
      vertex 6.884592e+00 -1.435015e+01 3.000000e+00
      vertex 6.884592e+00 -1.435015e+01 0.000000e+00
      vertex 2.352669e+00 -1.435015e+01 3.000000e+00
    endloop
  endfacet
  facet normal 0.000000e+00 1.000000e+00 0.000000e+00
    outer loop
      vertex 6.884592e+00 -1.435015e+01 0.000000e+00
      vertex 2.352669e+00 -1.435015e+01 0.000000e+00
      vertex 2.352669e+00 -1.435015e+01 3.000000e+00
    endloop
  endfacet
  facet normal 1.000000e+00 0.000000e+00 0.000000e+00
    outer loop
      vertex 2.352669e+00 -1.435015e+01 3.000000e+00
      vertex 2.352669e+00 -1.435015e+01 0.000000e+00
      vertex 2.352669e+00 4.741996e+00 3.000000e+00
    endloop
  endfacet
  facet normal 1.000000e+00 0.000000e+00 0.000000e+00
    outer loop
      vertex 2.352669e+00 -1.435015e+01 0.000000e+00
      vertex 2.352669e+00 4.741996e+00 0.000000e+00
      vertex 2.352669e+00 4.741996e+00 3.000000e+00
    endloop
  endfacet
  facet normal 0.000000e+00 -1.000000e+00 0.000000e+00
    outer loop
      vertex 2.352669e+00 4.741996e+00 3.000000e+00
      vertex 2.352669e+00 4.741996e+00 0.000000e+00
      vertex 6.884592e+00 4.741996e+00 3.000000e+00
    endloop
  endfacet
  facet normal 0.000000e+00 -1.000000e+00 0.000000e+00
    outer loop
      vertex 2.352669e+00 4.741996e+00 0.000000e+00
      vertex 6.884592e+00 4.741996e+00 0.000000e+00
      vertex 6.884592e+00 4.741996e+00 3.000000e+00
    endloop
  endfacet
  facet normal -9.914449e-01 -1.305262e-01 -0.000000e+00
    outer loop
      vertex 9.420166e-01 1.403519e+01 3.000000e+00
      vertex 9.420166e-01 1.403519e+01 0.000000e+00
      vertex 1.057833e+00 1.315548e+01 3.000000e+00
    endloop
  endfacet
  facet normal -9.238795e-01 -3.826834e-01 0.000000e+00
    outer loop
      vertex 9.420166e-01 1.403519e+01 0.000000e+00
      vertex 9.420166e-01 1.403519e+01 3.000000e+00
      vertex 6.024609e-01 1.485495e+01 0.000000e+00
    endloop
  endfacet
  facet normal -7.933533e-01 -6.087614e-01 -0.000000e+00
    outer loop
      vertex 6.230545e-02 1.555890e+01 3.000000e+00
      vertex 6.230545e-02 1.555890e+01 0.000000e+00
      vertex 6.024609e-01 1.485495e+01 3.000000e+00
    endloop
  endfacet
  facet normal -6.087614e-01 -7.933533e-01 0.000000e+00
    outer loop
      vertex 6.230545e-02 1.555890e+01 0.000000e+00
      vertex 6.230545e-02 1.555890e+01 3.000000e+00
      vertex -6.416378e-01 1.609906e+01 0.000000e+00
    endloop
  endfacet
  facet normal -3.826834e-01 -9.238795e-01 -0.000000e+00
    outer loop
      vertex -1.461397e+00 1.643861e+01 3.000000e+00
      vertex -1.461397e+00 1.643861e+01 0.000000e+00
      vertex -6.416378e-01 1.609906e+01 3.000000e+00
    endloop
  endfacet
  facet normal -1.305262e-01 -9.914449e-01 0.000000e+00
    outer loop
      vertex -1.461397e+00 1.643861e+01 0.000000e+00
      vertex -1.461397e+00 1.643861e+01 3.000000e+00
      vertex -2.341108e+00 1.655443e+01 0.000000e+00
    endloop
  endfacet
  facet normal 1.305262e-01 -9.914449e-01 1.545741e-16
    outer loop
      vertex -3.220819e+00 1.643861e+01 3.000000e+00
      vertex -3.220819e+00 1.643861e+01 0.000000e+00
      vertex -2.341108e+00 1.655443e+01 3.000000e+00
    endloop
  endfacet
  facet normal 3.826834e-01 -9.238795e-01 4.531882e-16
    outer loop
      vertex -3.220819e+00 1.643861e+01 0.000000e+00
      vertex -3.220819e+00 1.643861e+01 3.000000e+00
      vertex -4.040581e+00 1.609906e+01 0.000000e+00
    endloop
  endfacet
  facet normal 6.087614e-01 -7.933533e-01 3.604592e-16
    outer loop
      vertex -4.744524e+00 1.555890e+01 3.000000e+00
      vertex -4.744524e+00 1.555890e+01 0.000000e+00
      vertex -4.040581e+00 1.609906e+01 3.000000e+00
    endloop
  endfacet
  facet normal 7.933533e-01 -6.087614e-01 4.697595e-16
    outer loop
      vertex -4.744524e+00 1.555890e+01 0.000000e+00
      vertex -4.744524e+00 1.555890e+01 3.000000e+00
      vertex -5.284679e+00 1.485495e+01 0.000000e+00
    endloop
  endfacet
  facet normal 9.238795e-01 -3.826834e-01 5.470466e-16
    outer loop
      vertex -5.624235e+00 1.403519e+01 3.000000e+00
      vertex -5.624235e+00 1.403519e+01 0.000000e+00
      vertex -5.284679e+00 1.485495e+01 3.000000e+00
    endloop
  endfacet
  facet normal 9.914449e-01 -1.305262e-01 5.870533e-16
    outer loop
      vertex -5.624235e+00 1.403519e+01 0.000000e+00
      vertex -5.624235e+00 1.403519e+01 3.000000e+00
      vertex -5.740051e+00 1.315548e+01 0.000000e+00
    endloop
  endfacet
  facet normal 9.914449e-01 1.305262e-01 -5.870533e-16
    outer loop
      vertex -5.624235e+00 1.227577e+01 3.000000e+00
      vertex -5.624235e+00 1.227577e+01 0.000000e+00
      vertex -5.740051e+00 1.315548e+01 3.000000e+00
    endloop
  endfacet
  facet normal 9.238795e-01 3.826834e-01 -5.470466e-16
    outer loop
      vertex -5.624235e+00 1.227577e+01 0.000000e+00
      vertex -5.624235e+00 1.227577e+01 3.000000e+00
      vertex -5.284679e+00 1.145601e+01 0.000000e+00
    endloop
  endfacet
  facet normal 7.933533e-01 6.087614e-01 -4.697595e-16
    outer loop
      vertex -4.744524e+00 1.075207e+01 3.000000e+00
      vertex -4.744524e+00 1.075207e+01 0.000000e+00
      vertex -5.284679e+00 1.145601e+01 3.000000e+00
    endloop
  endfacet
  facet normal 6.087614e-01 7.933533e-01 -3.604592e-16
    outer loop
      vertex -4.744524e+00 1.075207e+01 0.000000e+00
      vertex -4.744524e+00 1.075207e+01 3.000000e+00
      vertex -4.040581e+00 1.021191e+01 0.000000e+00
    endloop
  endfacet
  facet normal 3.826834e-01 9.238795e-01 -4.531882e-16
    outer loop
      vertex -3.220819e+00 9.872358e+00 3.000000e+00
      vertex -3.220819e+00 9.872358e+00 0.000000e+00
      vertex -4.040581e+00 1.021191e+01 3.000000e+00
    endloop
  endfacet
  facet normal 1.305262e-01 9.914449e-01 -1.545741e-16
    outer loop
      vertex -3.220819e+00 9.872358e+00 0.000000e+00
      vertex -3.220819e+00 9.872358e+00 3.000000e+00
      vertex -2.341108e+00 9.756542e+00 0.000000e+00
    endloop
  endfacet
  facet normal -1.305262e-01 9.914449e-01 0.000000e+00
    outer loop
      vertex -1.461397e+00 9.872358e+00 3.000000e+00
      vertex -1.461397e+00 9.872358e+00 0.000000e+00
      vertex -2.341108e+00 9.756542e+00 3.000000e+00
    endloop
  endfacet
  facet normal -3.826834e-01 9.238795e-01 0.000000e+00
    outer loop
      vertex -1.461397e+00 9.872358e+00 0.000000e+00
      vertex -1.461397e+00 9.872358e+00 3.000000e+00
      vertex -6.416378e-01 1.021191e+01 0.000000e+00
    endloop
  endfacet
  facet normal -6.087614e-01 7.933533e-01 0.000000e+00
    outer loop
      vertex 6.230545e-02 1.075207e+01 3.000000e+00
      vertex 6.230545e-02 1.075207e+01 0.000000e+00
      vertex -6.416378e-01 1.021191e+01 3.000000e+00
    endloop
  endfacet
  facet normal -7.933533e-01 6.087614e-01 0.000000e+00
    outer loop
      vertex 6.230545e-02 1.075207e+01 0.000000e+00
      vertex 6.230545e-02 1.075207e+01 3.000000e+00
      vertex 6.024609e-01 1.145601e+01 0.000000e+00
    endloop
  endfacet
  facet normal -9.238795e-01 3.826834e-01 0.000000e+00
    outer loop
      vertex 9.420166e-01 1.227577e+01 3.000000e+00
      vertex 9.420166e-01 1.227577e+01 0.000000e+00
      vertex 6.024609e-01 1.145601e+01 3.000000e+00
    endloop
  endfacet
  facet normal -9.914449e-01 1.305262e-01 0.000000e+00
    outer loop
      vertex 9.420166e-01 1.227577e+01 0.000000e+00
      vertex 9.420166e-01 1.227577e+01 3.000000e+00
      vertex 1.057833e+00 1.315548e+01 0.000000e+00
    endloop
  endfacet
  facet normal -9.238795e-01 3.826834e-01 0.000000e+00
    outer loop
      vertex 9.420166e-01 1.227577e+01 0.000000e+00
      vertex 6.024609e-01 1.145601e+01 0.000000e+00
      vertex 6.024609e-01 1.145601e+01 3.000000e+00
    endloop
  endfacet
  facet normal -7.933533e-01 6.087614e-01 0.000000e+00
    outer loop
      vertex 6.024609e-01 1.145601e+01 3.000000e+00
      vertex 6.024609e-01 1.145601e+01 0.000000e+00
      vertex 6.230545e-02 1.075207e+01 3.000000e+00
    endloop
  endfacet
  facet normal -6.087614e-01 7.933533e-01 7.209184e-16
    outer loop
      vertex 6.230545e-02 1.075207e+01 0.000000e+00
      vertex -6.416378e-01 1.021191e+01 0.000000e+00
      vertex -6.416378e-01 1.021191e+01 3.000000e+00
    endloop
  endfacet
  facet normal -3.826834e-01 9.238795e-01 4.531882e-16
    outer loop
      vertex -6.416378e-01 1.021191e+01 3.000000e+00
      vertex -6.416378e-01 1.021191e+01 0.000000e+00
      vertex -1.461397e+00 9.872358e+00 3.000000e+00
    endloop
  endfacet
  facet normal -1.305262e-01 9.914449e-01 0.000000e+00
    outer loop
      vertex -1.461397e+00 9.872358e+00 0.000000e+00
      vertex -2.341108e+00 9.756542e+00 0.000000e+00
      vertex -2.341108e+00 9.756542e+00 3.000000e+00
    endloop
  endfacet
  facet normal 1.305262e-01 9.914449e-01 0.000000e+00
    outer loop
      vertex -2.341108e+00 9.756542e+00 3.000000e+00
      vertex -2.341108e+00 9.756542e+00 0.000000e+00
      vertex -3.220819e+00 9.872358e+00 3.000000e+00
    endloop
  endfacet
  facet normal 3.826834e-01 9.238795e-01 0.000000e+00
    outer loop
      vertex -3.220819e+00 9.872358e+00 0.000000e+00
      vertex -4.040581e+00 1.021191e+01 0.000000e+00
      vertex -4.040581e+00 1.021191e+01 3.000000e+00
    endloop
  endfacet
  facet normal 6.087614e-01 7.933533e-01 0.000000e+00
    outer loop
      vertex -4.040581e+00 1.021191e+01 3.000000e+00
      vertex -4.040581e+00 1.021191e+01 0.000000e+00
      vertex -4.744524e+00 1.075207e+01 3.000000e+00
    endloop
  endfacet
  facet normal 7.933533e-01 6.087614e-01 0.000000e+00
    outer loop
      vertex -4.744524e+00 1.075207e+01 0.000000e+00
      vertex -5.284679e+00 1.145601e+01 0.000000e+00
      vertex -5.284679e+00 1.145601e+01 3.000000e+00
    endloop
  endfacet
  facet normal 9.238795e-01 3.826834e-01 0.000000e+00
    outer loop
      vertex -5.284679e+00 1.145601e+01 3.000000e+00
      vertex -5.284679e+00 1.145601e+01 0.000000e+00
      vertex -5.624235e+00 1.227577e+01 3.000000e+00
    endloop
  endfacet
  facet normal 9.914449e-01 1.305262e-01 0.000000e+00
    outer loop
      vertex -5.624235e+00 1.227577e+01 0.000000e+00
      vertex -5.740051e+00 1.315548e+01 0.000000e+00
      vertex -5.740051e+00 1.315548e+01 3.000000e+00
    endloop
  endfacet
  facet normal 9.914449e-01 -1.305262e-01 0.000000e+00
    outer loop
      vertex -5.740051e+00 1.315548e+01 3.000000e+00
      vertex -5.740051e+00 1.315548e+01 0.000000e+00
      vertex -5.624235e+00 1.403519e+01 3.000000e+00
    endloop
  endfacet
  facet normal 9.238795e-01 -3.826834e-01 0.000000e+00
    outer loop
      vertex -5.624235e+00 1.403519e+01 0.000000e+00
      vertex -5.284679e+00 1.485495e+01 0.000000e+00
      vertex -5.284679e+00 1.485495e+01 3.000000e+00
    endloop
  endfacet
  facet normal 7.933533e-01 -6.087614e-01 0.000000e+00
    outer loop
      vertex -5.284679e+00 1.485495e+01 3.000000e+00
      vertex -5.284679e+00 1.485495e+01 0.000000e+00
      vertex -4.744524e+00 1.555890e+01 3.000000e+00
    endloop
  endfacet
  facet normal 6.087614e-01 -7.933533e-01 0.000000e+00
    outer loop
      vertex -4.744524e+00 1.555890e+01 0.000000e+00
      vertex -4.040581e+00 1.609906e+01 0.000000e+00
      vertex -4.040581e+00 1.609906e+01 3.000000e+00
    endloop
  endfacet
  facet normal 3.826834e-01 -9.238795e-01 0.000000e+00
    outer loop
      vertex -4.040581e+00 1.609906e+01 3.000000e+00
      vertex -4.040581e+00 1.609906e+01 0.000000e+00
      vertex -3.220819e+00 1.643861e+01 3.000000e+00
    endloop
  endfacet
  facet normal 1.305262e-01 -9.914449e-01 0.000000e+00
    outer loop
      vertex -3.220819e+00 1.643861e+01 0.000000e+00
      vertex -2.341108e+00 1.655443e+01 0.000000e+00
      vertex -2.341108e+00 1.655443e+01 3.000000e+00
    endloop
  endfacet
  facet normal -1.305262e-01 -9.914449e-01 -0.000000e+00
    outer loop
      vertex -2.341108e+00 1.655443e+01 3.000000e+00
      vertex -2.341108e+00 1.655443e+01 0.000000e+00
      vertex -1.461397e+00 1.643861e+01 3.000000e+00
    endloop
  endfacet
  facet normal -3.826834e-01 -9.238795e-01 -4.531882e-16
    outer loop
      vertex -1.461397e+00 1.643861e+01 0.000000e+00
      vertex -6.416378e-01 1.609906e+01 0.000000e+00
      vertex -6.416378e-01 1.609906e+01 3.000000e+00
    endloop
  endfacet
  facet normal -6.087614e-01 -7.933533e-01 -7.209184e-16
    outer loop
      vertex -6.416378e-01 1.609906e+01 3.000000e+00
      vertex -6.416378e-01 1.609906e+01 0.000000e+00
      vertex 6.230545e-02 1.555890e+01 3.000000e+00
    endloop
  endfacet
  facet normal -7.933533e-01 -6.087614e-01 0.000000e+00
    outer loop
      vertex 6.230545e-02 1.555890e+01 0.000000e+00
      vertex 6.024609e-01 1.485495e+01 0.000000e+00
      vertex 6.024609e-01 1.485495e+01 3.000000e+00
    endloop
  endfacet
  facet normal -9.238795e-01 -3.826834e-01 -0.000000e+00
    outer loop
      vertex 6.024609e-01 1.485495e+01 3.000000e+00
      vertex 6.024609e-01 1.485495e+01 0.000000e+00
      vertex 9.420166e-01 1.403519e+01 3.000000e+00
    endloop
  endfacet
  facet normal -9.914449e-01 -1.305262e-01 0.000000e+00
    outer loop
      vertex 9.420166e-01 1.403519e+01 0.000000e+00
      vertex 1.057833e+00 1.315548e+01 0.000000e+00
      vertex 1.057833e+00 1.315548e+01 3.000000e+00
    endloop
  endfacet
  facet normal -9.914449e-01 1.305262e-01 0.000000e+00
    outer loop
      vertex 1.057833e+00 1.315548e+01 3.000000e+00
      vertex 1.057833e+00 1.315548e+01 0.000000e+00
      vertex 9.420166e-01 1.227577e+01 3.000000e+00
    endloop
  endfacet
  facet normal 1.000000e+00 0.000000e+00 0.000000e+00
    outer loop
      vertex 1.000000e+01 -2.000000e+01 3.000000e+00
      vertex 1.000000e+01 -2.000000e+01 0.000000e+00
      vertex 1.000000e+01 2.000000e+01 3.000000e+00
    endloop
  endfacet
  facet normal 1.000000e+00 0.000000e+00 0.000000e+00
    outer loop
      vertex 1.000000e+01 -2.000000e+01 0.000000e+00
      vertex 1.000000e+01 2.000000e+01 0.000000e+00
      vertex 1.000000e+01 2.000000e+01 3.000000e+00
    endloop
  endfacet
  facet normal 0.000000e+00 -1.000000e+00 0.000000e+00
    outer loop
      vertex -1.000000e+01 -2.000000e+01 3.000000e+00
      vertex -1.000000e+01 -2.000000e+01 0.000000e+00
      vertex 1.000000e+01 -2.000000e+01 3.000000e+00
    endloop
  endfacet
  facet normal 0.000000e+00 -1.000000e+00 0.000000e+00
    outer loop
      vertex -1.000000e+01 -2.000000e+01 0.000000e+00
      vertex 1.000000e+01 -2.000000e+01 0.000000e+00
      vertex 1.000000e+01 -2.000000e+01 3.000000e+00
    endloop
  endfacet
  facet normal -1.000000e+00 -0.000000e+00 -0.000000e+00
    outer loop
      vertex -1.000000e+01 2.000000e+01 3.000000e+00
      vertex -1.000000e+01 2.000000e+01 0.000000e+00
      vertex -1.000000e+01 -2.000000e+01 3.000000e+00
    endloop
  endfacet
  facet normal -1.000000e+00 0.000000e+00 0.000000e+00
    outer loop
      vertex -1.000000e+01 2.000000e+01 0.000000e+00
      vertex -1.000000e+01 -2.000000e+01 0.000000e+00
      vertex -1.000000e+01 -2.000000e+01 3.000000e+00
    endloop
  endfacet
  facet normal 0.000000e+00 1.000000e+00 0.000000e+00
    outer loop
      vertex 1.000000e+01 2.000000e+01 3.000000e+00
      vertex 1.000000e+01 2.000000e+01 0.000000e+00
      vertex -1.000000e+01 2.000000e+01 3.000000e+00
    endloop
  endfacet
  facet normal 0.000000e+00 1.000000e+00 0.000000e+00
    outer loop
      vertex 1.000000e+01 2.000000e+01 0.000000e+00
      vertex -1.000000e+01 2.000000e+01 0.000000e+00
      vertex -1.000000e+01 2.000000e+01 3.000000e+00
    endloop
  endfacet
  facet normal 0.000000e+00 0.000000e+00 1.000000e+00
    outer loop
      vertex 6.884592e+00 -1.435015e+01 3.000000e+00
      vertex 1.000000e+01 -2.000000e+01 3.000000e+00
      vertex 6.884592e+00 4.741996e+00 3.000000e+00
    endloop
  endfacet
  facet normal 0.000000e+00 0.000000e+00 1.000000e+00
    outer loop
      vertex 6.884592e+00 -1.435015e+01 3.000000e+00
      vertex 2.352669e+00 -1.435015e+01 3.000000e+00
      vertex 1.000000e+01 -2.000000e+01 3.000000e+00
    endloop
  endfacet
  facet normal 0.000000e+00 0.000000e+00 1.000000e+00
    outer loop
      vertex 2.352669e+00 4.741996e+00 3.000000e+00
      vertex -2.341108e+00 9.756542e+00 3.000000e+00
      vertex 2.352669e+00 -1.435015e+01 3.000000e+00
    endloop
  endfacet
  facet normal 0.000000e+00 0.000000e+00 1.000000e+00
    outer loop
      vertex 6.884592e+00 4.741996e+00 3.000000e+00
      vertex 9.420166e-01 1.227577e+01 3.000000e+00
      vertex 2.352669e+00 4.741996e+00 3.000000e+00
    endloop
  endfacet
  facet normal 0.000000e+00 0.000000e+00 1.000000e+00
    outer loop
      vertex 9.420166e-01 1.227577e+01 3.000000e+00
      vertex 6.884592e+00 4.741996e+00 3.000000e+00
      vertex 1.057833e+00 1.315548e+01 3.000000e+00
    endloop
  endfacet
  facet normal 0.000000e+00 0.000000e+00 1.000000e+00
    outer loop
      vertex 9.420166e-01 1.227577e+01 3.000000e+00
      vertex 6.024609e-01 1.145601e+01 3.000000e+00
      vertex 2.352669e+00 4.741996e+00 3.000000e+00
    endloop
  endfacet
  facet normal 0.000000e+00 0.000000e+00 1.000000e+00
    outer loop
      vertex 6.024609e-01 1.145601e+01 3.000000e+00
      vertex 6.230545e-02 1.075207e+01 3.000000e+00
      vertex 2.352669e+00 4.741996e+00 3.000000e+00
    endloop
  endfacet
  facet normal 0.000000e+00 0.000000e+00 1.000000e+00
    outer loop
      vertex 6.230545e-02 1.075207e+01 3.000000e+00
      vertex -6.416378e-01 1.021191e+01 3.000000e+00
      vertex 2.352669e+00 4.741996e+00 3.000000e+00
    endloop
  endfacet
  facet normal 0.000000e+00 0.000000e+00 1.000000e+00
    outer loop
      vertex -6.416378e-01 1.021191e+01 3.000000e+00
      vertex -1.461397e+00 9.872358e+00 3.000000e+00
      vertex 2.352669e+00 4.741996e+00 3.000000e+00
    endloop
  endfacet
  facet normal 0.000000e+00 0.000000e+00 1.000000e+00
    outer loop
      vertex -1.461397e+00 9.872358e+00 3.000000e+00
      vertex -2.341108e+00 9.756542e+00 3.000000e+00
      vertex 2.352669e+00 4.741996e+00 3.000000e+00
    endloop
  endfacet
  facet normal 0.000000e+00 0.000000e+00 1.000000e+00
    outer loop
      vertex -2.341108e+00 9.756542e+00 3.000000e+00
      vertex -3.220819e+00 9.872358e+00 3.000000e+00
      vertex 2.352669e+00 -1.435015e+01 3.000000e+00
    endloop
  endfacet
  facet normal 0.000000e+00 0.000000e+00 1.000000e+00
    outer loop
      vertex 2.352669e+00 -1.435015e+01 3.000000e+00
      vertex -3.220819e+00 9.872358e+00 3.000000e+00
      vertex -1.000000e+01 -2.000000e+01 3.000000e+00
    endloop
  endfacet
  facet normal 0.000000e+00 0.000000e+00 1.000000e+00
    outer loop
      vertex 2.352669e+00 -1.435015e+01 3.000000e+00
      vertex -1.000000e+01 -2.000000e+01 3.000000e+00
      vertex 1.000000e+01 -2.000000e+01 3.000000e+00
    endloop
  endfacet
  facet normal 0.000000e+00 0.000000e+00 1.000000e+00
    outer loop
      vertex -3.220819e+00 9.872358e+00 3.000000e+00
      vertex -4.040581e+00 1.021191e+01 3.000000e+00
      vertex -1.000000e+01 -2.000000e+01 3.000000e+00
    endloop
  endfacet
  facet normal 0.000000e+00 0.000000e+00 1.000000e+00
    outer loop
      vertex -4.040581e+00 1.021191e+01 3.000000e+00
      vertex -4.744524e+00 1.075207e+01 3.000000e+00
      vertex -1.000000e+01 -2.000000e+01 3.000000e+00
    endloop
  endfacet
  facet normal 0.000000e+00 0.000000e+00 1.000000e+00
    outer loop
      vertex -4.744524e+00 1.075207e+01 3.000000e+00
      vertex -5.284679e+00 1.145601e+01 3.000000e+00
      vertex -1.000000e+01 -2.000000e+01 3.000000e+00
    endloop
  endfacet
  facet normal 0.000000e+00 0.000000e+00 1.000000e+00
    outer loop
      vertex -5.740051e+00 1.315548e+01 3.000000e+00
      vertex -1.000000e+01 2.000000e+01 3.000000e+00
      vertex -5.624235e+00 1.227577e+01 3.000000e+00
    endloop
  endfacet
  facet normal 0.000000e+00 0.000000e+00 1.000000e+00
    outer loop
      vertex -5.740051e+00 1.315548e+01 3.000000e+00
      vertex -5.624235e+00 1.403519e+01 3.000000e+00
      vertex -1.000000e+01 2.000000e+01 3.000000e+00
    endloop
  endfacet
  facet normal 0.000000e+00 0.000000e+00 1.000000e+00
    outer loop
      vertex -5.624235e+00 1.403519e+01 3.000000e+00
      vertex -5.284679e+00 1.485495e+01 3.000000e+00
      vertex -1.000000e+01 2.000000e+01 3.000000e+00
    endloop
  endfacet
  facet normal 0.000000e+00 0.000000e+00 1.000000e+00
    outer loop
      vertex -5.284679e+00 1.485495e+01 3.000000e+00
      vertex -4.744524e+00 1.555890e+01 3.000000e+00
      vertex -1.000000e+01 2.000000e+01 3.000000e+00
    endloop
  endfacet
  facet normal 0.000000e+00 0.000000e+00 1.000000e+00
    outer loop
      vertex -4.744524e+00 1.555890e+01 3.000000e+00
      vertex -4.040581e+00 1.609906e+01 3.000000e+00
      vertex -1.000000e+01 2.000000e+01 3.000000e+00
    endloop
  endfacet
  facet normal 0.000000e+00 0.000000e+00 1.000000e+00
    outer loop
      vertex -4.040581e+00 1.609906e+01 3.000000e+00
      vertex -3.220819e+00 1.643861e+01 3.000000e+00
      vertex -1.000000e+01 2.000000e+01 3.000000e+00
    endloop
  endfacet
  facet normal 0.000000e+00 0.000000e+00 1.000000e+00
    outer loop
      vertex -3.220819e+00 1.643861e+01 3.000000e+00
      vertex -2.341108e+00 1.655443e+01 3.000000e+00
      vertex -1.000000e+01 2.000000e+01 3.000000e+00
    endloop
  endfacet
  facet normal 0.000000e+00 0.000000e+00 1.000000e+00
    outer loop
      vertex -2.341108e+00 1.655443e+01 3.000000e+00
      vertex -1.461397e+00 1.643861e+01 3.000000e+00
      vertex -1.000000e+01 2.000000e+01 3.000000e+00
    endloop
  endfacet
  facet normal 0.000000e+00 0.000000e+00 1.000000e+00
    outer loop
      vertex -1.000000e+01 2.000000e+01 3.000000e+00
      vertex -1.461397e+00 1.643861e+01 3.000000e+00
      vertex 1.000000e+01 2.000000e+01 3.000000e+00
    endloop
  endfacet
  facet normal 0.000000e+00 0.000000e+00 1.000000e+00
    outer loop
      vertex -1.461397e+00 1.643861e+01 3.000000e+00
      vertex -6.416378e-01 1.609906e+01 3.000000e+00
      vertex 1.000000e+01 2.000000e+01 3.000000e+00
    endloop
  endfacet
  facet normal 0.000000e+00 0.000000e+00 1.000000e+00
    outer loop
      vertex -6.416378e-01 1.609906e+01 3.000000e+00
      vertex 6.230545e-02 1.555890e+01 3.000000e+00
      vertex 1.000000e+01 2.000000e+01 3.000000e+00
    endloop
  endfacet
  facet normal 0.000000e+00 0.000000e+00 1.000000e+00
    outer loop
      vertex 6.230545e-02 1.555890e+01 3.000000e+00
      vertex 6.024609e-01 1.485495e+01 3.000000e+00
      vertex 1.000000e+01 2.000000e+01 3.000000e+00
    endloop
  endfacet
  facet normal 0.000000e+00 0.000000e+00 1.000000e+00
    outer loop
      vertex 6.024609e-01 1.485495e+01 3.000000e+00
      vertex 9.420166e-01 1.403519e+01 3.000000e+00
      vertex 1.000000e+01 2.000000e+01 3.000000e+00
    endloop
  endfacet
  facet normal 0.000000e+00 0.000000e+00 1.000000e+00
    outer loop
      vertex 1.000000e+01 -2.000000e+01 3.000000e+00
      vertex 1.000000e+01 2.000000e+01 3.000000e+00
      vertex 6.884592e+00 4.741996e+00 3.000000e+00
    endloop
  endfacet
  facet normal 0.000000e+00 0.000000e+00 1.000000e+00
    outer loop
      vertex -1.000000e+01 2.000000e+01 3.000000e+00
      vertex -1.000000e+01 -2.000000e+01 3.000000e+00
      vertex -5.624235e+00 1.227577e+01 3.000000e+00
    endloop
  endfacet
  facet normal 0.000000e+00 0.000000e+00 1.000000e+00
    outer loop
      vertex 9.420166e-01 1.403519e+01 3.000000e+00
      vertex 1.057833e+00 1.315548e+01 3.000000e+00
      vertex 1.000000e+01 2.000000e+01 3.000000e+00
    endloop
  endfacet
  facet normal 0.000000e+00 0.000000e+00 1.000000e+00
    outer loop
      vertex 1.000000e+01 2.000000e+01 3.000000e+00
      vertex 1.057833e+00 1.315548e+01 3.000000e+00
      vertex 6.884592e+00 4.741996e+00 3.000000e+00
    endloop
  endfacet
  facet normal 0.000000e+00 0.000000e+00 1.000000e+00
    outer loop
      vertex -1.000000e+01 -2.000000e+01 3.000000e+00
      vertex -5.284679e+00 1.145601e+01 3.000000e+00
      vertex -5.624235e+00 1.227577e+01 3.000000e+00
    endloop
  endfacet
  facet normal 0.000000e+00 0.000000e+00 -1.000000e+00
    outer loop
      vertex 2.352669e+00 -1.435015e+01 0.000000e+00
      vertex 6.884592e+00 -1.435015e+01 0.000000e+00
      vertex 1.000000e+01 -2.000000e+01 0.000000e+00
    endloop
  endfacet
  facet normal -0.000000e+00 -0.000000e+00 -1.000000e+00
    outer loop
      vertex 2.352669e+00 -1.435015e+01 0.000000e+00
      vertex 1.000000e+01 -2.000000e+01 0.000000e+00
      vertex -1.000000e+01 -2.000000e+01 0.000000e+00
    endloop
  endfacet
  facet normal 0.000000e+00 0.000000e+00 -1.000000e+00
    outer loop
      vertex 2.352669e+00 -1.435015e+01 0.000000e+00
      vertex -1.000000e+01 -2.000000e+01 0.000000e+00
      vertex -3.220819e+00 9.872358e+00 0.000000e+00
    endloop
  endfacet
  facet normal 0.000000e+00 0.000000e+00 -1.000000e+00
    outer loop
      vertex 2.352669e+00 -1.435015e+01 0.000000e+00
      vertex -3.220819e+00 9.872358e+00 0.000000e+00
      vertex -2.341108e+00 9.756542e+00 0.000000e+00
    endloop
  endfacet
  facet normal 0.000000e+00 0.000000e+00 -1.000000e+00
    outer loop
      vertex 2.352669e+00 -1.435015e+01 0.000000e+00
      vertex -2.341108e+00 9.756542e+00 0.000000e+00
      vertex 2.352669e+00 4.741996e+00 0.000000e+00
    endloop
  endfacet
  facet normal 0.000000e+00 0.000000e+00 -1.000000e+00
    outer loop
      vertex 2.352669e+00 4.741996e+00 0.000000e+00
      vertex 9.420166e-01 1.227577e+01 0.000000e+00
      vertex 6.884592e+00 4.741996e+00 0.000000e+00
    endloop
  endfacet
  facet normal 0.000000e+00 0.000000e+00 -1.000000e+00
    outer loop
      vertex 9.420166e-01 1.403519e+01 0.000000e+00
      vertex 1.000000e+01 2.000000e+01 0.000000e+00
      vertex 1.057833e+00 1.315548e+01 0.000000e+00
    endloop
  endfacet
  facet normal 0.000000e+00 0.000000e+00 -1.000000e+00
    outer loop
      vertex 9.420166e-01 1.403519e+01 0.000000e+00
      vertex 6.024609e-01 1.485495e+01 0.000000e+00
      vertex 1.000000e+01 2.000000e+01 0.000000e+00
    endloop
  endfacet
  facet normal 0.000000e+00 0.000000e+00 -1.000000e+00
    outer loop
      vertex 6.024609e-01 1.485495e+01 0.000000e+00
      vertex 6.230545e-02 1.555890e+01 0.000000e+00
      vertex 1.000000e+01 2.000000e+01 0.000000e+00
    endloop
  endfacet
  facet normal 0.000000e+00 0.000000e+00 -1.000000e+00
    outer loop
      vertex 6.230545e-02 1.555890e+01 0.000000e+00
      vertex -6.416378e-01 1.609906e+01 0.000000e+00
      vertex 1.000000e+01 2.000000e+01 0.000000e+00
    endloop
  endfacet
  facet normal 0.000000e+00 0.000000e+00 -1.000000e+00
    outer loop
      vertex -6.416378e-01 1.609906e+01 0.000000e+00
      vertex -1.461397e+00 1.643861e+01 0.000000e+00
      vertex 1.000000e+01 2.000000e+01 0.000000e+00
    endloop
  endfacet
  facet normal 0.000000e+00 0.000000e+00 -1.000000e+00
    outer loop
      vertex 1.000000e+01 2.000000e+01 0.000000e+00
      vertex -1.461397e+00 1.643861e+01 0.000000e+00
      vertex -1.000000e+01 2.000000e+01 0.000000e+00
    endloop
  endfacet
  facet normal 0.000000e+00 0.000000e+00 -1.000000e+00
    outer loop
      vertex -1.461397e+00 1.643861e+01 0.000000e+00
      vertex -2.341108e+00 1.655443e+01 0.000000e+00
      vertex -1.000000e+01 2.000000e+01 0.000000e+00
    endloop
  endfacet
  facet normal 0.000000e+00 0.000000e+00 -1.000000e+00
    outer loop
      vertex -2.341108e+00 1.655443e+01 0.000000e+00
      vertex -3.220819e+00 1.643861e+01 0.000000e+00
      vertex -1.000000e+01 2.000000e+01 0.000000e+00
    endloop
  endfacet
  facet normal 0.000000e+00 0.000000e+00 -1.000000e+00
    outer loop
      vertex -3.220819e+00 1.643861e+01 0.000000e+00
      vertex -4.040581e+00 1.609906e+01 0.000000e+00
      vertex -1.000000e+01 2.000000e+01 0.000000e+00
    endloop
  endfacet
  facet normal 0.000000e+00 0.000000e+00 -1.000000e+00
    outer loop
      vertex -4.040581e+00 1.609906e+01 0.000000e+00
      vertex -4.744524e+00 1.555890e+01 0.000000e+00
      vertex -1.000000e+01 2.000000e+01 0.000000e+00
    endloop
  endfacet
  facet normal 0.000000e+00 0.000000e+00 -1.000000e+00
    outer loop
      vertex -4.744524e+00 1.555890e+01 0.000000e+00
      vertex -5.284679e+00 1.485495e+01 0.000000e+00
      vertex -1.000000e+01 2.000000e+01 0.000000e+00
    endloop
  endfacet
  facet normal 0.000000e+00 0.000000e+00 -1.000000e+00
    outer loop
      vertex -5.284679e+00 1.485495e+01 0.000000e+00
      vertex -5.624235e+00 1.403519e+01 0.000000e+00
      vertex -1.000000e+01 2.000000e+01 0.000000e+00
    endloop
  endfacet
  facet normal 0.000000e+00 0.000000e+00 -1.000000e+00
    outer loop
      vertex -5.624235e+00 1.403519e+01 0.000000e+00
      vertex -5.740051e+00 1.315548e+01 0.000000e+00
      vertex -1.000000e+01 2.000000e+01 0.000000e+00
    endloop
  endfacet
  facet normal 0.000000e+00 0.000000e+00 -1.000000e+00
    outer loop
      vertex -5.284679e+00 1.145601e+01 0.000000e+00
      vertex -1.000000e+01 -2.000000e+01 0.000000e+00
      vertex -5.624235e+00 1.227577e+01 0.000000e+00
    endloop
  endfacet
  facet normal 0.000000e+00 0.000000e+00 -1.000000e+00
    outer loop
      vertex -5.284679e+00 1.145601e+01 0.000000e+00
      vertex -4.744524e+00 1.075207e+01 0.000000e+00
      vertex -1.000000e+01 -2.000000e+01 0.000000e+00
    endloop
  endfacet
  facet normal 0.000000e+00 0.000000e+00 -1.000000e+00
    outer loop
      vertex -4.744524e+00 1.075207e+01 0.000000e+00
      vertex -4.040581e+00 1.021191e+01 0.000000e+00
      vertex -1.000000e+01 -2.000000e+01 0.000000e+00
    endloop
  endfacet
  facet normal 0.000000e+00 0.000000e+00 -1.000000e+00
    outer loop
      vertex -4.040581e+00 1.021191e+01 0.000000e+00
      vertex -3.220819e+00 9.872358e+00 0.000000e+00
      vertex -1.000000e+01 -2.000000e+01 0.000000e+00
    endloop
  endfacet
  facet normal 0.000000e+00 0.000000e+00 -1.000000e+00
    outer loop
      vertex -2.341108e+00 9.756542e+00 0.000000e+00
      vertex -1.461397e+00 9.872358e+00 0.000000e+00
      vertex 2.352669e+00 4.741996e+00 0.000000e+00
    endloop
  endfacet
  facet normal 0.000000e+00 0.000000e+00 -1.000000e+00
    outer loop
      vertex -1.461397e+00 9.872358e+00 0.000000e+00
      vertex -6.416378e-01 1.021191e+01 0.000000e+00
      vertex 2.352669e+00 4.741996e+00 0.000000e+00
    endloop
  endfacet
  facet normal 0.000000e+00 0.000000e+00 -1.000000e+00
    outer loop
      vertex -6.416378e-01 1.021191e+01 0.000000e+00
      vertex 6.230545e-02 1.075207e+01 0.000000e+00
      vertex 2.352669e+00 4.741996e+00 0.000000e+00
    endloop
  endfacet
  facet normal 0.000000e+00 0.000000e+00 -1.000000e+00
    outer loop
      vertex 6.230545e-02 1.075207e+01 0.000000e+00
      vertex 6.024609e-01 1.145601e+01 0.000000e+00
      vertex 2.352669e+00 4.741996e+00 0.000000e+00
    endloop
  endfacet
  facet normal 0.000000e+00 0.000000e+00 -1.000000e+00
    outer loop
      vertex 6.024609e-01 1.145601e+01 0.000000e+00
      vertex 9.420166e-01 1.227577e+01 0.000000e+00
      vertex 2.352669e+00 4.741996e+00 0.000000e+00
    endloop
  endfacet
  facet normal 0.000000e+00 0.000000e+00 -1.000000e+00
    outer loop
      vertex 9.420166e-01 1.227577e+01 0.000000e+00
      vertex 1.057833e+00 1.315548e+01 0.000000e+00
      vertex 6.884592e+00 4.741996e+00 0.000000e+00
    endloop
  endfacet
  facet normal 0.000000e+00 0.000000e+00 -1.000000e+00
    outer loop
      vertex 1.057833e+00 1.315548e+01 0.000000e+00
      vertex 1.000000e+01 2.000000e+01 0.000000e+00
      vertex 6.884592e+00 4.741996e+00 0.000000e+00
    endloop
  endfacet
  facet normal 0.000000e+00 0.000000e+00 -1.000000e+00
    outer loop
      vertex -1.000000e+01 -2.000000e+01 0.000000e+00
      vertex -1.000000e+01 2.000000e+01 0.000000e+00
      vertex -5.624235e+00 1.227577e+01 0.000000e+00
    endloop
  endfacet
  facet normal 0.000000e+00 0.000000e+00 -1.000000e+00
    outer loop
      vertex 6.884592e+00 -1.435015e+01 0.000000e+00
      vertex 6.884592e+00 4.741996e+00 0.000000e+00
      vertex 1.000000e+01 -2.000000e+01 0.000000e+00
    endloop
  endfacet
  facet normal 0.000000e+00 0.000000e+00 -1.000000e+00
    outer loop
      vertex 1.000000e+01 -2.000000e+01 0.000000e+00
      vertex 6.884592e+00 4.741996e+00 0.000000e+00
      vertex 1.000000e+01 2.000000e+01 0.000000e+00
    endloop
  endfacet
  facet normal 0.000000e+00 0.000000e+00 -1.000000e+00
    outer loop
      vertex -5.624235e+00 1.227577e+01 0.000000e+00
      vertex -1.000000e+01 2.000000e+01 0.000000e+00
      vertex -5.740051e+00 1.315548e+01 0.000000e+00
    endloop
  endfacet
endsolid Default
