solid Default
  facet normal -9.970657e-01 -7.654925e-02 0.000000e+00
    outer loop
      vertex 4.351625e+01 2.120030e+01 1.270000e+01
      vertex 4.380218e+01 1.747567e+01 1.000000e-06
      vertex 4.380218e+01 1.747567e+01 1.270000e+01
    endloop
  endfacet
  facet normal -9.970657e-01 -7.654925e-02 -0.000000e+00
    outer loop
      vertex 4.380218e+01 1.747567e+01 1.000000e-06
      vertex 4.351625e+01 2.120030e+01 1.270000e+01
      vertex 4.351625e+01 2.120030e+01 1.000000e-06
    endloop
  endfacet
  facet normal -9.275024e-01 -3.738171e-01 0.000000e+00
    outer loop
      vertex 4.126861e+01 2.830243e+01 1.270000e+01
      vertex 4.266504e+01 2.483762e+01 1.000000e-06
      vertex 4.266504e+01 2.483762e+01 1.270000e+01
    endloop
  endfacet
  facet normal -9.275024e-01 -3.738171e-01 -0.000000e+00
    outer loop
      vertex 4.266504e+01 2.483762e+01 1.000000e-06
      vertex 4.126861e+01 2.830243e+01 1.270000e+01
      vertex 4.126861e+01 2.830243e+01 1.000000e-06
    endloop
  endfacet
  facet normal -7.714892e-01 -6.362424e-01 5.481760e-15
    outer loop
      vertex 3.698292e+01 3.439542e+01 1.270000e+01
      vertex 3.935967e+01 3.151343e+01 1.000000e-06
      vertex 3.935967e+01 3.151343e+01 1.270000e+01
    endloop
  endfacet
  facet normal -7.714892e-01 -6.362424e-01 -0.000000e+00
    outer loop
      vertex 3.935967e+01 3.151343e+01 1.000000e-06
      vertex 3.698292e+01 3.439542e+01 1.270000e+01
      vertex 3.698292e+01 3.439542e+01 1.000000e-06
    endloop
  endfacet
  facet normal -5.435675e-01 -8.393654e-01 0.000000e+00
    outer loop
      vertex 3.105853e+01 3.891133e+01 1.270000e+01
      vertex 3.419409e+01 3.688078e+01 1.000000e-06
      vertex 3.419409e+01 3.688078e+01 1.270000e+01
    endloop
  endfacet
  facet normal -5.435675e-01 -8.393654e-01 -0.000000e+00
    outer loop
      vertex 3.419409e+01 3.688078e+01 1.000000e-06
      vertex 3.105853e+01 3.891133e+01 1.270000e+01
      vertex 3.105853e+01 3.891133e+01 1.000000e-06
    endloop
  endfacet
  facet normal -2.649815e-01 -9.642535e-01 0.000000e+00
    outer loop
      vertex 2.404772e+01 4.142934e+01 1.270000e+01
      vertex 2.764977e+01 4.043948e+01 1.000000e-06
      vertex 2.764977e+01 4.043948e+01 1.270000e+01
    endloop
  endfacet
  facet normal -2.649815e-01 -9.642535e-01 -0.000000e+00
    outer loop
      vertex 2.764977e+01 4.043948e+01 1.000000e-06
      vertex 2.404772e+01 4.142934e+01 1.270000e+01
      vertex 2.404772e+01 4.142934e+01 1.000000e-06
    endloop
  endfacet
  facet normal 3.830273e-02 -9.992662e-01 0.000000e+00
    outer loop
      vertex 1.660389e+01 4.171464e+01 1.270000e+01
      vertex 2.033675e+01 4.185776e+01 1.000000e-06
      vertex 2.033675e+01 4.185776e+01 1.270000e+01
    endloop
  endfacet
  facet normal 3.830273e-02 -9.992662e-01 0.000000e+00
    outer loop
      vertex 2.033675e+01 4.185776e+01 1.000000e-06
      vertex 1.660389e+01 4.171464e+01 1.270000e+01
      vertex 1.660389e+01 4.171464e+01 1.000000e-06
    endloop
  endfacet
  facet normal 3.380169e-01 -9.411401e-01 0.000000e+00
    outer loop
      vertex 9.420896e+00 3.974073e+01 1.270000e+01
      vertex 1.293662e+01 4.100345e+01 1.000000e-06
      vertex 1.293662e+01 4.100345e+01 1.270000e+01
    endloop
  endfacet
  facet normal 3.380169e-01 -9.411401e-01 0.000000e+00
    outer loop
      vertex 1.293662e+01 4.100345e+01 1.000000e-06
      vertex 9.420896e+00 3.974073e+01 1.270000e+01
      vertex 9.420896e+00 3.974073e+01 1.000000e-06
    endloop
  endfacet
  facet normal 6.062254e-01 -7.952929e-01 0.000000e+00
    outer loop
      vertex 3.168225e+00 3.569156e+01 1.270000e+01
      vertex 6.139119e+00 3.795615e+01 1.000000e-06
      vertex 6.139119e+00 3.795615e+01 1.270000e+01
    endloop
  endfacet
  facet normal 6.062254e-01 -7.952929e-01 0.000000e+00
    outer loop
      vertex 6.139119e+00 3.795615e+01 1.000000e-06
      vertex 3.168225e+00 3.569156e+01 1.270000e+01
      vertex 3.168225e+00 3.569156e+01 1.000000e-06
    endloop
  endfacet
  facet normal 8.179294e-01 -5.753186e-01 0.000000e+00
    outer loop
      vertex -1.571311e+00 2.994448e+01 1.270000e+01
      vertex 5.778309e-01 3.299996e+01 1.000000e-06
      vertex 5.778309e-01 3.299996e+01 1.270000e+01
    endloop
  endfacet
  facet normal 8.179294e-01 -5.753186e-01 0.000000e+00
    outer loop
      vertex 5.778309e-01 3.299996e+01 1.000000e-06
      vertex -1.571311e+00 2.994448e+01 1.270000e+01
      vertex -1.571311e+00 2.994448e+01 1.000000e-06
    endloop
  endfacet
  facet normal 9.533964e-01 -3.017206e-01 0.000000e+00
    outer loop
      vertex -4.355976e+00 2.303526e+01 1.270000e+01
      vertex -3.228865e+00 2.659677e+01 1.000000e-06
      vertex -3.228865e+00 2.659677e+01 1.270000e+01
    endloop
  endfacet
  facet normal 9.533964e-01 -3.017206e-01 0.000000e+00
    outer loop
      vertex -3.228865e+00 2.659677e+01 1.000000e-06
      vertex -4.355976e+00 2.303526e+01 1.270000e+01
      vertex -4.355976e+00 2.303526e+01 1.000000e-06
    endloop
  endfacet
  facet normal 1.000000e+00 0.000000e+00 0.000000e+00
    outer loop
      vertex -4.926242e+00 1.560786e+01 1.270000e+01
      vertex -4.926242e+00 1.934343e+01 1.000000e-06
      vertex -4.926242e+00 1.934343e+01 1.270000e+01
    endloop
  endfacet
  facet normal 1.000000e+00 0.000000e+00 0.000000e+00
    outer loop
      vertex -4.926242e+00 1.934343e+01 1.000000e-06
      vertex -4.926242e+00 1.560786e+01 1.270000e+01
      vertex -4.926242e+00 1.560786e+01 1.000000e-06
    endloop
  endfacet
  facet normal 9.533964e-01 3.017206e-01 0.000000e+00
    outer loop
      vertex -3.228865e+00 8.354519e+00 1.270000e+01
      vertex -4.355976e+00 1.191603e+01 1.000000e-06
      vertex -4.355976e+00 1.191603e+01 1.270000e+01
    endloop
  endfacet
  facet normal 9.533964e-01 3.017206e-01 0.000000e+00
    outer loop
      vertex -4.355976e+00 1.191603e+01 1.000000e-06
      vertex -3.228865e+00 8.354519e+00 1.270000e+01
      vertex -3.228865e+00 8.354519e+00 1.000000e-06
    endloop
  endfacet
  facet normal 8.179294e-01 5.753186e-01 0.000000e+00
    outer loop
      vertex 5.778309e-01 1.951325e+00 1.270000e+01
      vertex -1.571311e+00 5.006807e+00 1.000000e-06
      vertex -1.571311e+00 5.006807e+00 1.270000e+01
    endloop
  endfacet
  facet normal 8.179294e-01 5.753186e-01 0.000000e+00
    outer loop
      vertex -1.571311e+00 5.006807e+00 1.000000e-06
      vertex 5.778309e-01 1.951325e+00 1.270000e+01
      vertex 5.778309e-01 1.951325e+00 1.000000e-06
    endloop
  endfacet
  facet normal 6.062254e-01 7.952929e-01 0.000000e+00
    outer loop
      vertex 6.139119e+00 -3.004865e+00 1.270000e+01
      vertex 3.168225e+00 -7.402744e-01 1.000000e-06
      vertex 3.168225e+00 -7.402744e-01 1.270000e+01
    endloop
  endfacet
  facet normal 6.062254e-01 7.952929e-01 0.000000e+00
    outer loop
      vertex 3.168225e+00 -7.402744e-01 1.000000e-06
      vertex 6.139119e+00 -3.004865e+00 1.270000e+01
      vertex 6.139119e+00 -3.004865e+00 1.000000e-06
    endloop
  endfacet
  facet normal 3.380169e-01 9.411401e-01 0.000000e+00
    outer loop
      vertex 1.293662e+01 -6.052160e+00 1.270000e+01
      vertex 9.420896e+00 -4.789446e+00 1.000000e-06
      vertex 9.420896e+00 -4.789446e+00 1.270000e+01
    endloop
  endfacet
  facet normal 3.380169e-01 9.411401e-01 0.000000e+00
    outer loop
      vertex 9.420896e+00 -4.789446e+00 1.000000e-06
      vertex 1.293662e+01 -6.052160e+00 1.270000e+01
      vertex 1.293662e+01 -6.052160e+00 1.000000e-06
    endloop
  endfacet
  facet normal 3.830273e-02 9.992662e-01 0.000000e+00
    outer loop
      vertex 2.033675e+01 -6.906468e+00 1.270000e+01
      vertex 1.660389e+01 -6.763356e+00 1.000000e-06
      vertex 1.660389e+01 -6.763356e+00 1.270000e+01
    endloop
  endfacet
  facet normal 3.830273e-02 9.992662e-01 0.000000e+00
    outer loop
      vertex 1.660389e+01 -6.763356e+00 1.000000e-06
      vertex 2.033675e+01 -6.906468e+00 1.270000e+01
      vertex 2.033675e+01 -6.906468e+00 1.000000e-06
    endloop
  endfacet
  facet normal -2.649815e-01 9.642535e-01 0.000000e+00
    outer loop
      vertex 2.764977e+01 -5.488192e+00 1.270000e+01
      vertex 2.404772e+01 -6.478054e+00 1.000000e-06
      vertex 2.404772e+01 -6.478054e+00 1.270000e+01
    endloop
  endfacet
  facet normal -2.649815e-01 9.642535e-01 0.000000e+00
    outer loop
      vertex 2.404772e+01 -6.478054e+00 1.000000e-06
      vertex 2.764977e+01 -5.488192e+00 1.270000e+01
      vertex 2.764977e+01 -5.488192e+00 1.000000e-06
    endloop
  endfacet
  facet normal -5.435675e-01 8.393654e-01 0.000000e+00
    outer loop
      vertex 3.419409e+01 -1.929494e+00 1.270000e+01
      vertex 3.105853e+01 -3.960039e+00 1.000000e-06
      vertex 3.105853e+01 -3.960039e+00 1.270000e+01
    endloop
  endfacet
  facet normal -5.435675e-01 8.393654e-01 0.000000e+00
    outer loop
      vertex 3.105853e+01 -3.960039e+00 1.000000e-06
      vertex 3.419409e+01 -1.929494e+00 1.270000e+01
      vertex 3.419409e+01 -1.929494e+00 1.000000e-06
    endloop
  endfacet
  facet normal -7.714892e-01 6.362424e-01 0.000000e+00
    outer loop
      vertex 3.935967e+01 3.437862e+00 1.270000e+01
      vertex 3.698292e+01 5.558674e-01 1.000000e-06
      vertex 3.698292e+01 5.558674e-01 1.270000e+01
    endloop
  endfacet
  facet normal -7.714892e-01 6.362424e-01 -5.481760e-15
    outer loop
      vertex 3.698292e+01 5.558674e-01 1.000000e-06
      vertex 3.935967e+01 3.437862e+00 1.270000e+01
      vertex 3.935967e+01 3.437862e+00 1.000000e-06
    endloop
  endfacet
  facet normal -9.275024e-01 3.738171e-01 0.000000e+00
    outer loop
      vertex 4.266504e+01 1.011367e+01 1.270000e+01
      vertex 4.126861e+01 6.648858e+00 1.000000e-06
      vertex 4.126861e+01 6.648858e+00 1.270000e+01
    endloop
  endfacet
  facet normal -9.275024e-01 3.738171e-01 0.000000e+00
    outer loop
      vertex 4.126861e+01 6.648858e+00 1.000000e-06
      vertex 4.266504e+01 1.011367e+01 1.270000e+01
      vertex 4.266504e+01 1.011367e+01 1.000000e-06
    endloop
  endfacet
  facet normal -9.970657e-01 7.654925e-02 0.000000e+00
    outer loop
      vertex 4.380218e+01 1.747567e+01 1.270000e+01
      vertex 4.351625e+01 1.375099e+01 1.000000e-06
      vertex 4.351625e+01 1.375099e+01 1.270000e+01
    endloop
  endfacet
  facet normal -9.970657e-01 7.654925e-02 0.000000e+00
    outer loop
      vertex 4.380218e+01 1.747567e+01 1.000000e-06
      vertex 4.351625e+01 1.375099e+01 1.000000e-06
      vertex 4.380218e+01 1.747567e+01 1.270000e+01
    endloop
  endfacet
  facet normal -9.736954e-01 2.278535e-01 0.000000e+00
    outer loop
      vertex 4.351625e+01 1.375099e+01 1.000000e-06
      vertex 4.266504e+01 1.011367e+01 1.000000e-06
      vertex 4.351625e+01 1.375099e+01 1.270000e+01
    endloop
  endfacet
  facet normal -9.736954e-01 2.278535e-01 0.000000e+00
    outer loop
      vertex 4.351625e+01 1.375099e+01 1.270000e+01
      vertex 4.266504e+01 1.011367e+01 1.000000e-06
      vertex 4.266504e+01 1.011367e+01 1.270000e+01
    endloop
  endfacet
  facet normal -8.595696e-01 5.110187e-01 0.000000e+00
    outer loop
      vertex 4.126861e+01 6.648858e+00 1.000000e-06
      vertex 3.935967e+01 3.437862e+00 1.000000e-06
      vertex 4.126861e+01 6.648858e+00 1.270000e+01
    endloop
  endfacet
  facet normal -8.595696e-01 5.110187e-01 -6.107609e-15
    outer loop
      vertex 4.126861e+01 6.648858e+00 1.270000e+01
      vertex 3.935967e+01 3.437862e+00 1.000000e-06
      vertex 3.935967e+01 3.437862e+00 1.270000e+01
    endloop
  endfacet
  facet normal -6.653257e-01 7.465532e-01 0.000000e+00
    outer loop
      vertex 3.698292e+01 5.558674e-01 1.000000e-06
      vertex 3.419409e+01 -1.929494e+00 1.000000e-06
      vertex 3.698292e+01 5.558674e-01 1.270000e+01
    endloop
  endfacet
  facet normal -6.653257e-01 7.465532e-01 0.000000e+00
    outer loop
      vertex 3.698292e+01 5.558674e-01 1.270000e+01
      vertex 3.419409e+01 -1.929494e+00 1.000000e-06
      vertex 3.419409e+01 -1.929494e+00 1.270000e+01
    endloop
  endfacet
  facet normal -4.090686e-01 9.125036e-01 0.000000e+00
    outer loop
      vertex 3.105853e+01 -3.960039e+00 1.000000e-06
      vertex 2.764977e+01 -5.488192e+00 1.000000e-06
      vertex 3.105853e+01 -3.960039e+00 1.270000e+01
    endloop
  endfacet
  facet normal -4.090686e-01 9.125036e-01 0.000000e+00
    outer loop
      vertex 3.105853e+01 -3.960039e+00 1.270000e+01
      vertex 2.764977e+01 -5.488192e+00 1.000000e-06
      vertex 2.764977e+01 -5.488192e+00 1.270000e+01
    endloop
  endfacet
  facet normal -1.146834e-01 9.934021e-01 0.000000e+00
    outer loop
      vertex 2.404772e+01 -6.478054e+00 1.000000e-06
      vertex 2.033675e+01 -6.906468e+00 1.000000e-06
      vertex 2.404772e+01 -6.478054e+00 1.270000e+01
    endloop
  endfacet
  facet normal -1.146834e-01 9.934021e-01 0.000000e+00
    outer loop
      vertex 2.404772e+01 -6.478054e+00 1.270000e+01
      vertex 2.033675e+01 -6.906468e+00 1.000000e-06
      vertex 2.033675e+01 -6.906468e+00 1.270000e+01
    endloop
  endfacet
  facet normal 1.903911e-01 9.817083e-01 0.000000e+00
    outer loop
      vertex 1.660389e+01 -6.763356e+00 1.000000e-06
      vertex 1.293662e+01 -6.052160e+00 1.000000e-06
      vertex 1.660389e+01 -6.763356e+00 1.270000e+01
    endloop
  endfacet
  facet normal 1.903911e-01 9.817083e-01 0.000000e+00
    outer loop
      vertex 1.660389e+01 -6.763356e+00 1.270000e+01
      vertex 1.293662e+01 -6.052160e+00 1.000000e-06
      vertex 1.293662e+01 -6.052160e+00 1.270000e+01
    endloop
  endfacet
  facet normal 4.777198e-01 8.785123e-01 0.000000e+00
    outer loop
      vertex 9.420896e+00 -4.789446e+00 1.000000e-06
      vertex 6.139119e+00 -3.004865e+00 1.000000e-06
      vertex 9.420896e+00 -4.789446e+00 1.270000e+01
    endloop
  endfacet
  facet normal 4.777198e-01 8.785123e-01 0.000000e+00
    outer loop
      vertex 9.420896e+00 -4.789446e+00 1.270000e+01
      vertex 6.139119e+00 -3.004865e+00 1.000000e-06
      vertex 6.139119e+00 -3.004865e+00 1.270000e+01
    endloop
  endfacet
  facet normal 7.205216e-01 6.934325e-01 0.000000e+00
    outer loop
      vertex 3.168225e+00 -7.402744e-01 1.000000e-06
      vertex 5.778309e-01 1.951325e+00 1.000000e-06
      vertex 3.168225e+00 -7.402744e-01 1.270000e+01
    endloop
  endfacet
  facet normal 7.205216e-01 6.934325e-01 0.000000e+00
    outer loop
      vertex 3.168225e+00 -7.402744e-01 1.270000e+01
      vertex 5.778309e-01 1.951325e+00 1.000000e-06
      vertex 5.778309e-01 1.951325e+00 1.270000e+01
    endloop
  endfacet
  facet normal 8.961655e-01 4.437198e-01 0.000000e+00
    outer loop
      vertex -1.571311e+00 5.006807e+00 1.000000e-06
      vertex -3.228865e+00 8.354519e+00 1.000000e-06
      vertex -1.571311e+00 5.006807e+00 1.270000e+01
    endloop
  endfacet
  facet normal 8.961655e-01 4.437198e-01 0.000000e+00
    outer loop
      vertex -1.571311e+00 5.006807e+00 1.270000e+01
      vertex -3.228865e+00 8.354519e+00 1.000000e-06
      vertex -3.228865e+00 8.354519e+00 1.270000e+01
    endloop
  endfacet
  facet normal 9.882805e-01 1.526493e-01 0.000000e+00
    outer loop
      vertex -4.355976e+00 1.191603e+01 1.000000e-06
      vertex -4.926242e+00 1.560786e+01 1.000000e-06
      vertex -4.355976e+00 1.191603e+01 1.270000e+01
    endloop
  endfacet
  facet normal 9.882805e-01 1.526493e-01 0.000000e+00
    outer loop
      vertex -4.355976e+00 1.191603e+01 1.270000e+01
      vertex -4.926242e+00 1.560786e+01 1.000000e-06
      vertex -4.926242e+00 1.560786e+01 1.270000e+01
    endloop
  endfacet
  facet normal 9.882805e-01 -1.526493e-01 0.000000e+00
    outer loop
      vertex -4.926242e+00 1.934343e+01 1.000000e-06
      vertex -4.355976e+00 2.303526e+01 1.000000e-06
      vertex -4.926242e+00 1.934343e+01 1.270000e+01
    endloop
  endfacet
  facet normal 9.882805e-01 -1.526493e-01 0.000000e+00
    outer loop
      vertex -4.926242e+00 1.934343e+01 1.270000e+01
      vertex -4.355976e+00 2.303526e+01 1.000000e-06
      vertex -4.355976e+00 2.303526e+01 1.270000e+01
    endloop
  endfacet
  facet normal 8.961655e-01 -4.437198e-01 0.000000e+00
    outer loop
      vertex -3.228865e+00 2.659677e+01 1.000000e-06
      vertex -1.571311e+00 2.994448e+01 1.000000e-06
      vertex -3.228865e+00 2.659677e+01 1.270000e+01
    endloop
  endfacet
  facet normal 8.961655e-01 -4.437198e-01 0.000000e+00
    outer loop
      vertex -3.228865e+00 2.659677e+01 1.270000e+01
      vertex -1.571311e+00 2.994448e+01 1.000000e-06
      vertex -1.571311e+00 2.994448e+01 1.270000e+01
    endloop
  endfacet
  facet normal 7.205216e-01 -6.934325e-01 0.000000e+00
    outer loop
      vertex 5.778309e-01 3.299996e+01 1.000000e-06
      vertex 3.168225e+00 3.569156e+01 1.000000e-06
      vertex 5.778309e-01 3.299996e+01 1.270000e+01
    endloop
  endfacet
  facet normal 7.205216e-01 -6.934325e-01 0.000000e+00
    outer loop
      vertex 5.778309e-01 3.299996e+01 1.270000e+01
      vertex 3.168225e+00 3.569156e+01 1.000000e-06
      vertex 3.168225e+00 3.569156e+01 1.270000e+01
    endloop
  endfacet
  facet normal 4.777198e-01 -8.785123e-01 0.000000e+00
    outer loop
      vertex 6.139119e+00 3.795615e+01 1.000000e-06
      vertex 9.420896e+00 3.974073e+01 1.000000e-06
      vertex 6.139119e+00 3.795615e+01 1.270000e+01
    endloop
  endfacet
  facet normal 4.777198e-01 -8.785123e-01 0.000000e+00
    outer loop
      vertex 6.139119e+00 3.795615e+01 1.270000e+01
      vertex 9.420896e+00 3.974073e+01 1.000000e-06
      vertex 9.420896e+00 3.974073e+01 1.270000e+01
    endloop
  endfacet
  facet normal 1.903911e-01 -9.817083e-01 0.000000e+00
    outer loop
      vertex 1.293662e+01 4.100345e+01 1.000000e-06
      vertex 1.660389e+01 4.171464e+01 1.000000e-06
      vertex 1.293662e+01 4.100345e+01 1.270000e+01
    endloop
  endfacet
  facet normal 1.903911e-01 -9.817083e-01 0.000000e+00
    outer loop
      vertex 1.293662e+01 4.100345e+01 1.270000e+01
      vertex 1.660389e+01 4.171464e+01 1.000000e-06
      vertex 1.660389e+01 4.171464e+01 1.270000e+01
    endloop
  endfacet
  facet normal -1.146834e-01 -9.934021e-01 0.000000e+00
    outer loop
      vertex 2.033675e+01 4.185776e+01 1.000000e-06
      vertex 2.404772e+01 4.142934e+01 1.000000e-06
      vertex 2.033675e+01 4.185776e+01 1.270000e+01
    endloop
  endfacet
  facet normal -1.146834e-01 -9.934021e-01 0.000000e+00
    outer loop
      vertex 2.033675e+01 4.185776e+01 1.270000e+01
      vertex 2.404772e+01 4.142934e+01 1.000000e-06
      vertex 2.404772e+01 4.142934e+01 1.270000e+01
    endloop
  endfacet
  facet normal -4.090686e-01 -9.125036e-01 0.000000e+00
    outer loop
      vertex 2.764977e+01 4.043948e+01 1.000000e-06
      vertex 3.105853e+01 3.891133e+01 1.000000e-06
      vertex 2.764977e+01 4.043948e+01 1.270000e+01
    endloop
  endfacet
  facet normal -4.090686e-01 -9.125036e-01 0.000000e+00
    outer loop
      vertex 2.764977e+01 4.043948e+01 1.270000e+01
      vertex 3.105853e+01 3.891133e+01 1.000000e-06
      vertex 3.105853e+01 3.891133e+01 1.270000e+01
    endloop
  endfacet
  facet normal -6.653257e-01 -7.465532e-01 0.000000e+00
    outer loop
      vertex 3.419409e+01 3.688078e+01 1.000000e-06
      vertex 3.698292e+01 3.439542e+01 1.000000e-06
      vertex 3.419409e+01 3.688078e+01 1.270000e+01
    endloop
  endfacet
  facet normal -6.653257e-01 -7.465532e-01 0.000000e+00
    outer loop
      vertex 3.419409e+01 3.688078e+01 1.270000e+01
      vertex 3.698292e+01 3.439542e+01 1.000000e-06
      vertex 3.698292e+01 3.439542e+01 1.270000e+01
    endloop
  endfacet
  facet normal -8.595696e-01 -5.110187e-01 6.109883e-15
    outer loop
      vertex 3.935967e+01 3.151343e+01 1.000000e-06
      vertex 4.126861e+01 2.830243e+01 1.000000e-06
      vertex 3.935967e+01 3.151343e+01 1.270000e+01
    endloop
  endfacet
  facet normal -8.595696e-01 -5.110187e-01 0.000000e+00
    outer loop
      vertex 3.935967e+01 3.151343e+01 1.270000e+01
      vertex 4.126861e+01 2.830243e+01 1.000000e-06
      vertex 4.126861e+01 2.830243e+01 1.270000e+01
    endloop
  endfacet
  facet normal -9.736954e-01 -2.278535e-01 0.000000e+00
    outer loop
      vertex 4.266504e+01 2.483762e+01 1.000000e-06
      vertex 4.351625e+01 2.120030e+01 1.000000e-06
      vertex 4.266504e+01 2.483762e+01 1.270000e+01
    endloop
  endfacet
  facet normal -9.736954e-01 -2.278535e-01 0.000000e+00
    outer loop
      vertex 4.266504e+01 2.483762e+01 1.270000e+01
      vertex 4.351625e+01 2.120030e+01 1.000000e-06
      vertex 4.351625e+01 2.120030e+01 1.270000e+01
    endloop
  endfacet
  facet normal 9.972038e-01 -7.473008e-02 0.000000e+00
    outer loop
      vertex 4.451846e+01 1.368995e+01 1.270000e+01
      vertex 4.451846e+01 1.368995e+01 1.000000e-06
      vertex 4.480217e+01 1.747567e+01 1.270000e+01
    endloop
  endfacet
  facet normal 9.749280e-01 -2.225210e-01 0.000000e+00
    outer loop
      vertex 4.451846e+01 1.368995e+01 1.000000e-06
      vertex 4.451846e+01 1.368995e+01 1.270000e+01
      vertex 4.367375e+01 9.988867e+00 1.000000e-06
    endloop
  endfacet
  facet normal 9.308738e-01 -3.653410e-01 0.000000e+00
    outer loop
      vertex 4.228677e+01 6.455023e+00 1.270000e+01
      vertex 4.228677e+01 6.455023e+00 1.000000e-06
      vertex 4.367375e+01 9.988867e+00 1.270000e+01
    endloop
  endfacet
  facet normal 8.660254e-01 -5.000000e-01 0.000000e+00
    outer loop
      vertex 4.228677e+01 6.455023e+00 1.000000e-06
      vertex 4.228677e+01 6.455023e+00 1.270000e+01
      vertex 4.038863e+01 3.167336e+00 1.000000e-06
    endloop
  endfacet
  facet normal 7.818315e-01 -6.234898e-01 0.000000e+00
    outer loop
      vertex 3.802172e+01 1.992516e-01 1.270000e+01
      vertex 3.802172e+01 1.992516e-01 1.000000e-06
      vertex 4.038863e+01 3.167336e+00 1.270000e+01
    endloop
  endfacet
  facet normal 6.801727e-01 -7.330519e-01 0.000000e+00
    outer loop
      vertex 3.802172e+01 1.992516e-01 1.000000e-06
      vertex 3.802172e+01 1.992516e-01 1.270000e+01
      vertex 3.523880e+01 -2.382858e+00 1.000000e-06
    endloop
  endfacet
  facet normal 5.633201e-01 -8.262388e-01 0.000000e+00
    outer loop
      vertex 3.210217e+01 -4.521391e+00 1.270000e+01
      vertex 3.210217e+01 -4.521391e+00 1.000000e-06
      vertex 3.523880e+01 -2.382858e+00 1.270000e+01
    endloop
  endfacet
  facet normal 4.338837e-01 -9.009688e-01 0.000000e+00
    outer loop
      vertex 3.210217e+01 -4.521391e+00 1.000000e-06
      vertex 3.210217e+01 -4.521391e+00 1.270000e+01
      vertex 2.868183e+01 -6.168528e+00 1.000000e-06
    endloop
  endfacet
  facet normal 2.947552e-01 -9.555728e-01 0.000000e+00
    outer loop
      vertex 2.505420e+01 -7.287501e+00 1.270000e+01
      vertex 2.505420e+01 -7.287501e+00 1.000000e-06
      vertex 2.868183e+01 -6.168528e+00 1.270000e+01
    endloop
  endfacet
  facet normal 1.490423e-01 -9.888308e-01 0.000000e+00
    outer loop
      vertex 2.505420e+01 -7.287501e+00 1.000000e-06
      vertex 2.505420e+01 -7.287501e+00 1.270000e+01
      vertex 2.130031e+01 -7.853309e+00 1.000000e-06
    endloop
  endfacet
  facet normal 0.000000e+00 -1.000000e+00 0.000000e+00
    outer loop
      vertex 1.750403e+01 -7.853309e+00 1.270000e+01
      vertex 1.750403e+01 -7.853309e+00 1.000000e-06
      vertex 2.130031e+01 -7.853309e+00 1.270000e+01
    endloop
  endfacet
  facet normal -1.490423e-01 -9.888308e-01 0.000000e+00
    outer loop
      vertex 1.750403e+01 -7.853309e+00 1.000000e-06
      vertex 1.750403e+01 -7.853309e+00 1.270000e+01
      vertex 1.375014e+01 -7.287501e+00 1.000000e-06
    endloop
  endfacet
  facet normal -2.947552e-01 -9.555728e-01 -0.000000e+00
    outer loop
      vertex 1.012250e+01 -6.168528e+00 1.270000e+01
      vertex 1.012250e+01 -6.168528e+00 1.000000e-06
      vertex 1.375014e+01 -7.287501e+00 1.270000e+01
    endloop
  endfacet
  facet normal -4.338837e-01 -9.009688e-01 0.000000e+00
    outer loop
      vertex 1.012250e+01 -6.168528e+00 1.000000e-06
      vertex 1.012250e+01 -6.168528e+00 1.270000e+01
      vertex 6.702166e+00 -4.521391e+00 1.000000e-06
    endloop
  endfacet
  facet normal -5.633201e-01 -8.262388e-01 4.002630e-15
    outer loop
      vertex 3.565536e+00 -2.382858e+00 1.270000e+01
      vertex 3.565536e+00 -2.382858e+00 1.000000e-06
      vertex 6.702166e+00 -4.521391e+00 1.270000e+01
    endloop
  endfacet
  facet normal -6.801727e-01 -7.330519e-01 4.832918e-15
    outer loop
      vertex 3.565536e+00 -2.382858e+00 1.000000e-06
      vertex 3.565536e+00 -2.382858e+00 1.270000e+01
      vertex 7.826633e-01 1.992516e-01 1.000000e-06
    endloop
  endfacet
  facet normal -7.818315e-01 -6.234898e-01 -0.000000e+00
    outer loop
      vertex -1.584295e+00 3.167336e+00 1.270000e+01
      vertex -1.584295e+00 3.167336e+00 1.000000e-06
      vertex 7.826633e-01 1.992516e-01 1.270000e+01
    endloop
  endfacet
  facet normal -8.660254e-01 -5.000000e-01 0.000000e+00
    outer loop
      vertex -1.584295e+00 3.167336e+00 1.000000e-06
      vertex -1.584295e+00 3.167336e+00 1.270000e+01
      vertex -3.482435e+00 6.455023e+00 1.000000e-06
    endloop
  endfacet
  facet normal -9.308738e-01 -3.653410e-01 -0.000000e+00
    outer loop
      vertex -4.869366e+00 9.988867e+00 1.270000e+01
      vertex -4.869366e+00 9.988867e+00 1.000000e-06
      vertex -3.482435e+00 6.455023e+00 1.270000e+01
    endloop
  endfacet
  facet normal -9.749280e-01 -2.225210e-01 0.000000e+00
    outer loop
      vertex -4.869366e+00 9.988867e+00 1.000000e-06
      vertex -4.869366e+00 9.988867e+00 1.270000e+01
      vertex -5.714130e+00 1.368995e+01 1.000000e-06
    endloop
  endfacet
  facet normal -9.972038e-01 -7.473008e-02 -0.000000e+00
    outer loop
      vertex -5.997834e+00 1.747567e+01 1.270000e+01
      vertex -5.997834e+00 1.747567e+01 1.000000e-06
      vertex -5.714130e+00 1.368995e+01 1.270000e+01
    endloop
  endfacet
  facet normal -9.972038e-01 7.473008e-02 0.000000e+00
    outer loop
      vertex -5.997834e+00 1.747567e+01 1.000000e-06
      vertex -5.997834e+00 1.747567e+01 1.270000e+01
      vertex -5.714130e+00 2.126134e+01 1.000000e-06
    endloop
  endfacet
  facet normal -9.749280e-01 2.225210e-01 0.000000e+00
    outer loop
      vertex -4.869366e+00 2.496242e+01 1.270000e+01
      vertex -4.869366e+00 2.496242e+01 1.000000e-06
      vertex -5.714130e+00 2.126134e+01 1.270000e+01
    endloop
  endfacet
  facet normal -9.308738e-01 3.653410e-01 0.000000e+00
    outer loop
      vertex -4.869366e+00 2.496242e+01 1.000000e-06
      vertex -4.869366e+00 2.496242e+01 1.270000e+01
      vertex -3.482435e+00 2.849631e+01 1.000000e-06
    endloop
  endfacet
  facet normal -8.660254e-01 5.000000e-01 0.000000e+00
    outer loop
      vertex -1.584295e+00 3.178395e+01 1.270000e+01
      vertex -1.584295e+00 3.178395e+01 1.000000e-06
      vertex -3.482435e+00 2.849631e+01 1.270000e+01
    endloop
  endfacet
  facet normal -7.818315e-01 6.234898e-01 0.000000e+00
    outer loop
      vertex -1.584295e+00 3.178395e+01 1.000000e-06
      vertex -1.584295e+00 3.178395e+01 1.270000e+01
      vertex 7.826633e-01 3.475204e+01 1.000000e-06
    endloop
  endfacet
  facet normal -6.801727e-01 7.330519e-01 -4.832918e-15
    outer loop
      vertex 3.565536e+00 3.733415e+01 1.270000e+01
      vertex 3.565536e+00 3.733415e+01 1.000000e-06
      vertex 7.826633e-01 3.475204e+01 1.270000e+01
    endloop
  endfacet
  facet normal -5.633201e-01 8.262388e-01 -4.002630e-15
    outer loop
      vertex 3.565536e+00 3.733415e+01 1.000000e-06
      vertex 3.565536e+00 3.733415e+01 1.270000e+01
      vertex 6.702166e+00 3.947268e+01 1.000000e-06
    endloop
  endfacet
  facet normal -4.338837e-01 9.009688e-01 0.000000e+00
    outer loop
      vertex 1.012250e+01 4.111982e+01 1.270000e+01
      vertex 1.012250e+01 4.111982e+01 1.000000e-06
      vertex 6.702166e+00 3.947268e+01 1.270000e+01
    endloop
  endfacet
  facet normal -2.947552e-01 9.555728e-01 0.000000e+00
    outer loop
      vertex 1.012250e+01 4.111982e+01 1.000000e-06
      vertex 1.012250e+01 4.111982e+01 1.270000e+01
      vertex 1.375014e+01 4.223884e+01 1.000000e-06
    endloop
  endfacet
  facet normal -1.490423e-01 9.888308e-01 0.000000e+00
    outer loop
      vertex 1.750403e+01 4.280465e+01 1.270000e+01
      vertex 1.750403e+01 4.280465e+01 1.000000e-06
      vertex 1.375014e+01 4.223884e+01 1.270000e+01
    endloop
  endfacet
  facet normal 0.000000e+00 1.000000e+00 0.000000e+00
    outer loop
      vertex 1.750403e+01 4.280465e+01 1.000000e-06
      vertex 1.750403e+01 4.280465e+01 1.270000e+01
      vertex 2.130031e+01 4.280465e+01 1.000000e-06
    endloop
  endfacet
  facet normal 1.490423e-01 9.888308e-01 0.000000e+00
    outer loop
      vertex 2.505420e+01 4.223884e+01 1.270000e+01
      vertex 2.505420e+01 4.223884e+01 1.000000e-06
      vertex 2.130031e+01 4.280465e+01 1.270000e+01
    endloop
  endfacet
  facet normal 2.947552e-01 9.555728e-01 0.000000e+00
    outer loop
      vertex 2.505420e+01 4.223884e+01 1.000000e-06
      vertex 2.505420e+01 4.223884e+01 1.270000e+01
      vertex 2.868183e+01 4.111982e+01 1.000000e-06
    endloop
  endfacet
  facet normal 4.338837e-01 9.009688e-01 0.000000e+00
    outer loop
      vertex 3.210217e+01 3.947268e+01 1.270000e+01
      vertex 3.210217e+01 3.947268e+01 1.000000e-06
      vertex 2.868183e+01 4.111982e+01 1.270000e+01
    endloop
  endfacet
  facet normal 5.633201e-01 8.262388e-01 0.000000e+00
    outer loop
      vertex 3.210217e+01 3.947268e+01 1.000000e-06
      vertex 3.210217e+01 3.947268e+01 1.270000e+01
      vertex 3.523880e+01 3.733415e+01 1.000000e-06
    endloop
  endfacet
  facet normal 6.801727e-01 7.330519e-01 0.000000e+00
    outer loop
      vertex 3.802172e+01 3.475204e+01 1.270000e+01
      vertex 3.802172e+01 3.475204e+01 1.000000e-06
      vertex 3.523880e+01 3.733415e+01 1.270000e+01
    endloop
  endfacet
  facet normal 7.818315e-01 6.234898e-01 0.000000e+00
    outer loop
      vertex 3.802172e+01 3.475204e+01 1.000000e-06
      vertex 3.802172e+01 3.475204e+01 1.270000e+01
      vertex 4.038863e+01 3.178395e+01 1.000000e-06
    endloop
  endfacet
  facet normal 8.660254e-01 5.000000e-01 0.000000e+00
    outer loop
      vertex 4.228677e+01 2.849631e+01 1.270000e+01
      vertex 4.228677e+01 2.849631e+01 1.000000e-06
      vertex 4.038863e+01 3.178395e+01 1.270000e+01
    endloop
  endfacet
  facet normal 9.308738e-01 3.653410e-01 0.000000e+00
    outer loop
      vertex 4.228677e+01 2.849631e+01 1.000000e-06
      vertex 4.228677e+01 2.849631e+01 1.270000e+01
      vertex 4.367375e+01 2.496242e+01 1.000000e-06
    endloop
  endfacet
  facet normal 9.749280e-01 2.225210e-01 0.000000e+00
    outer loop
      vertex 4.451846e+01 2.126134e+01 1.270000e+01
      vertex 4.451846e+01 2.126134e+01 1.000000e-06
      vertex 4.367375e+01 2.496242e+01 1.270000e+01
    endloop
  endfacet
  facet normal 9.972038e-01 7.473008e-02 0.000000e+00
    outer loop
      vertex 4.451846e+01 2.126134e+01 1.000000e-06
      vertex 4.451846e+01 2.126134e+01 1.270000e+01
      vertex 4.480217e+01 1.747567e+01 1.000000e-06
    endloop
  endfacet
  facet normal 9.749280e-01 2.225210e-01 0.000000e+00
    outer loop
      vertex 4.451846e+01 2.126134e+01 1.000000e-06
      vertex 4.367375e+01 2.496242e+01 1.000000e-06
      vertex 4.367375e+01 2.496242e+01 1.270000e+01
    endloop
  endfacet
  facet normal 9.308738e-01 3.653410e-01 0.000000e+00
    outer loop
      vertex 4.367375e+01 2.496242e+01 1.270000e+01
      vertex 4.367375e+01 2.496242e+01 1.000000e-06
      vertex 4.228677e+01 2.849631e+01 1.270000e+01
    endloop
  endfacet
  facet normal 8.660254e-01 5.000000e-01 0.000000e+00
    outer loop
      vertex 4.228677e+01 2.849631e+01 1.000000e-06
      vertex 4.038863e+01 3.178395e+01 1.000000e-06
      vertex 4.038863e+01 3.178395e+01 1.270000e+01
    endloop
  endfacet
  facet normal 7.818315e-01 6.234898e-01 0.000000e+00
    outer loop
      vertex 4.038863e+01 3.178395e+01 1.270000e+01
      vertex 4.038863e+01 3.178395e+01 1.000000e-06
      vertex 3.802172e+01 3.475204e+01 1.270000e+01
    endloop
  endfacet
  facet normal 6.801727e-01 7.330519e-01 4.832918e-15
    outer loop
      vertex 3.802172e+01 3.475204e+01 1.000000e-06
      vertex 3.523880e+01 3.733415e+01 1.000000e-06
      vertex 3.523880e+01 3.733415e+01 1.270000e+01
    endloop
  endfacet
  facet normal 5.633201e-01 8.262388e-01 4.002630e-15
    outer loop
      vertex 3.523880e+01 3.733415e+01 1.270000e+01
      vertex 3.523880e+01 3.733415e+01 1.000000e-06
      vertex 3.210217e+01 3.947268e+01 1.270000e+01
    endloop
  endfacet
  facet normal 4.338837e-01 9.009688e-01 0.000000e+00
    outer loop
      vertex 3.210217e+01 3.947268e+01 1.000000e-06
      vertex 2.868183e+01 4.111982e+01 1.000000e-06
      vertex 2.868183e+01 4.111982e+01 1.270000e+01
    endloop
  endfacet
  facet normal 2.947552e-01 9.555728e-01 0.000000e+00
    outer loop
      vertex 2.868183e+01 4.111982e+01 1.270000e+01
      vertex 2.868183e+01 4.111982e+01 1.000000e-06
      vertex 2.505420e+01 4.223884e+01 1.270000e+01
    endloop
  endfacet
  facet normal 1.490423e-01 9.888308e-01 0.000000e+00
    outer loop
      vertex 2.505420e+01 4.223884e+01 1.000000e-06
      vertex 2.130031e+01 4.280465e+01 1.000000e-06
      vertex 2.130031e+01 4.280465e+01 1.270000e+01
    endloop
  endfacet
  facet normal 0.000000e+00 1.000000e+00 0.000000e+00
    outer loop
      vertex 2.130031e+01 4.280465e+01 1.270000e+01
      vertex 2.130031e+01 4.280465e+01 1.000000e-06
      vertex 1.750403e+01 4.280465e+01 1.270000e+01
    endloop
  endfacet
  facet normal -1.490423e-01 9.888308e-01 0.000000e+00
    outer loop
      vertex 1.750403e+01 4.280465e+01 1.000000e-06
      vertex 1.375014e+01 4.223884e+01 1.000000e-06
      vertex 1.375014e+01 4.223884e+01 1.270000e+01
    endloop
  endfacet
  facet normal -2.947552e-01 9.555728e-01 0.000000e+00
    outer loop
      vertex 1.375014e+01 4.223884e+01 1.270000e+01
      vertex 1.375014e+01 4.223884e+01 1.000000e-06
      vertex 1.012250e+01 4.111982e+01 1.270000e+01
    endloop
  endfacet
  facet normal -4.338837e-01 9.009688e-01 0.000000e+00
    outer loop
      vertex 1.012250e+01 4.111982e+01 1.000000e-06
      vertex 6.702166e+00 3.947268e+01 1.000000e-06
      vertex 6.702166e+00 3.947268e+01 1.270000e+01
    endloop
  endfacet
  facet normal -5.633201e-01 8.262388e-01 0.000000e+00
    outer loop
      vertex 6.702166e+00 3.947268e+01 1.270000e+01
      vertex 6.702166e+00 3.947268e+01 1.000000e-06
      vertex 3.565536e+00 3.733415e+01 1.270000e+01
    endloop
  endfacet
  facet normal -6.801727e-01 7.330519e-01 0.000000e+00
    outer loop
      vertex 3.565536e+00 3.733415e+01 1.000000e-06
      vertex 7.826633e-01 3.475204e+01 1.000000e-06
      vertex 7.826633e-01 3.475204e+01 1.270000e+01
    endloop
  endfacet
  facet normal -7.818315e-01 6.234898e-01 0.000000e+00
    outer loop
      vertex 7.826633e-01 3.475204e+01 1.270000e+01
      vertex 7.826633e-01 3.475204e+01 1.000000e-06
      vertex -1.584295e+00 3.178395e+01 1.270000e+01
    endloop
  endfacet
  facet normal -8.660254e-01 5.000000e-01 0.000000e+00
    outer loop
      vertex -1.584295e+00 3.178395e+01 1.000000e-06
      vertex -3.482435e+00 2.849631e+01 1.000000e-06
      vertex -3.482435e+00 2.849631e+01 1.270000e+01
    endloop
  endfacet
  facet normal -9.308738e-01 3.653410e-01 0.000000e+00
    outer loop
      vertex -3.482435e+00 2.849631e+01 1.270000e+01
      vertex -3.482435e+00 2.849631e+01 1.000000e-06
      vertex -4.869366e+00 2.496242e+01 1.270000e+01
    endloop
  endfacet
  facet normal -9.749280e-01 2.225210e-01 0.000000e+00
    outer loop
      vertex -4.869366e+00 2.496242e+01 1.000000e-06
      vertex -5.714130e+00 2.126134e+01 1.000000e-06
      vertex -5.714130e+00 2.126134e+01 1.270000e+01
    endloop
  endfacet
  facet normal -9.972038e-01 7.473008e-02 0.000000e+00
    outer loop
      vertex -5.714130e+00 2.126134e+01 1.270000e+01
      vertex -5.714130e+00 2.126134e+01 1.000000e-06
      vertex -5.997834e+00 1.747567e+01 1.270000e+01
    endloop
  endfacet
  facet normal -9.972038e-01 -7.473008e-02 0.000000e+00
    outer loop
      vertex -5.997834e+00 1.747567e+01 1.000000e-06
      vertex -5.714130e+00 1.368995e+01 1.000000e-06
      vertex -5.714130e+00 1.368995e+01 1.270000e+01
    endloop
  endfacet
  facet normal -9.749280e-01 -2.225210e-01 -0.000000e+00
    outer loop
      vertex -5.714130e+00 1.368995e+01 1.270000e+01
      vertex -5.714130e+00 1.368995e+01 1.000000e-06
      vertex -4.869366e+00 9.988867e+00 1.270000e+01
    endloop
  endfacet
  facet normal -9.308738e-01 -3.653410e-01 0.000000e+00
    outer loop
      vertex -4.869366e+00 9.988867e+00 1.000000e-06
      vertex -3.482435e+00 6.455023e+00 1.000000e-06
      vertex -3.482435e+00 6.455023e+00 1.270000e+01
    endloop
  endfacet
  facet normal -8.660254e-01 -5.000000e-01 -0.000000e+00
    outer loop
      vertex -3.482435e+00 6.455023e+00 1.270000e+01
      vertex -3.482435e+00 6.455023e+00 1.000000e-06
      vertex -1.584295e+00 3.167336e+00 1.270000e+01
    endloop
  endfacet
  facet normal -7.818315e-01 -6.234898e-01 0.000000e+00
    outer loop
      vertex -1.584295e+00 3.167336e+00 1.000000e-06
      vertex 7.826633e-01 1.992516e-01 1.000000e-06
      vertex 7.826633e-01 1.992516e-01 1.270000e+01
    endloop
  endfacet
  facet normal -6.801727e-01 -7.330519e-01 -0.000000e+00
    outer loop
      vertex 7.826633e-01 1.992516e-01 1.270000e+01
      vertex 7.826633e-01 1.992516e-01 1.000000e-06
      vertex 3.565536e+00 -2.382858e+00 1.270000e+01
    endloop
  endfacet
  facet normal -5.633201e-01 -8.262388e-01 0.000000e+00
    outer loop
      vertex 3.565536e+00 -2.382858e+00 1.000000e-06
      vertex 6.702166e+00 -4.521391e+00 1.000000e-06
      vertex 6.702166e+00 -4.521391e+00 1.270000e+01
    endloop
  endfacet
  facet normal -4.338837e-01 -9.009688e-01 -0.000000e+00
    outer loop
      vertex 6.702166e+00 -4.521391e+00 1.270000e+01
      vertex 6.702166e+00 -4.521391e+00 1.000000e-06
      vertex 1.012250e+01 -6.168528e+00 1.270000e+01
    endloop
  endfacet
  facet normal -2.947552e-01 -9.555728e-01 0.000000e+00
    outer loop
      vertex 1.012250e+01 -6.168528e+00 1.000000e-06
      vertex 1.375014e+01 -7.287501e+00 1.000000e-06
      vertex 1.375014e+01 -7.287501e+00 1.270000e+01
    endloop
  endfacet
  facet normal -1.490423e-01 -9.888308e-01 -0.000000e+00
    outer loop
      vertex 1.375014e+01 -7.287501e+00 1.270000e+01
      vertex 1.375014e+01 -7.287501e+00 1.000000e-06
      vertex 1.750403e+01 -7.853309e+00 1.270000e+01
    endloop
  endfacet
  facet normal 0.000000e+00 -1.000000e+00 0.000000e+00
    outer loop
      vertex 1.750403e+01 -7.853309e+00 1.000000e-06
      vertex 2.130031e+01 -7.853309e+00 1.000000e-06
      vertex 2.130031e+01 -7.853309e+00 1.270000e+01
    endloop
  endfacet
  facet normal 1.490423e-01 -9.888308e-01 0.000000e+00
    outer loop
      vertex 2.130031e+01 -7.853309e+00 1.270000e+01
      vertex 2.130031e+01 -7.853309e+00 1.000000e-06
      vertex 2.505420e+01 -7.287501e+00 1.270000e+01
    endloop
  endfacet
  facet normal 2.947552e-01 -9.555728e-01 0.000000e+00
    outer loop
      vertex 2.505420e+01 -7.287501e+00 1.000000e-06
      vertex 2.868183e+01 -6.168528e+00 1.000000e-06
      vertex 2.868183e+01 -6.168528e+00 1.270000e+01
    endloop
  endfacet
  facet normal 4.338837e-01 -9.009688e-01 0.000000e+00
    outer loop
      vertex 2.868183e+01 -6.168528e+00 1.270000e+01
      vertex 2.868183e+01 -6.168528e+00 1.000000e-06
      vertex 3.210217e+01 -4.521391e+00 1.270000e+01
    endloop
  endfacet
  facet normal 5.633201e-01 -8.262388e-01 -4.002630e-15
    outer loop
      vertex 3.210217e+01 -4.521391e+00 1.000000e-06
      vertex 3.523880e+01 -2.382858e+00 1.000000e-06
      vertex 3.523880e+01 -2.382858e+00 1.270000e+01
    endloop
  endfacet
  facet normal 6.801727e-01 -7.330519e-01 -4.832918e-15
    outer loop
      vertex 3.523880e+01 -2.382858e+00 1.270000e+01
      vertex 3.523880e+01 -2.382858e+00 1.000000e-06
      vertex 3.802172e+01 1.992516e-01 1.270000e+01
    endloop
  endfacet
  facet normal 7.818315e-01 -6.234898e-01 0.000000e+00
    outer loop
      vertex 3.802172e+01 1.992516e-01 1.000000e-06
      vertex 4.038863e+01 3.167336e+00 1.000000e-06
      vertex 4.038863e+01 3.167336e+00 1.270000e+01
    endloop
  endfacet
  facet normal 8.660254e-01 -5.000000e-01 0.000000e+00
    outer loop
      vertex 4.038863e+01 3.167336e+00 1.270000e+01
      vertex 4.038863e+01 3.167336e+00 1.000000e-06
      vertex 4.228677e+01 6.455023e+00 1.270000e+01
    endloop
  endfacet
  facet normal 9.308738e-01 -3.653410e-01 0.000000e+00
    outer loop
      vertex 4.228677e+01 6.455023e+00 1.000000e-06
      vertex 4.367375e+01 9.988867e+00 1.000000e-06
      vertex 4.367375e+01 9.988867e+00 1.270000e+01
    endloop
  endfacet
  facet normal 9.749280e-01 -2.225210e-01 0.000000e+00
    outer loop
      vertex 4.367375e+01 9.988867e+00 1.270000e+01
      vertex 4.367375e+01 9.988867e+00 1.000000e-06
      vertex 4.451846e+01 1.368995e+01 1.270000e+01
    endloop
  endfacet
  facet normal 9.972038e-01 -7.473008e-02 0.000000e+00
    outer loop
      vertex 4.451846e+01 1.368995e+01 1.000000e-06
      vertex 4.480217e+01 1.747567e+01 1.000000e-06
      vertex 4.480217e+01 1.747567e+01 1.270000e+01
    endloop
  endfacet
  facet normal 9.972038e-01 7.473008e-02 0.000000e+00
    outer loop
      vertex 4.480217e+01 1.747567e+01 1.270000e+01
      vertex 4.480217e+01 1.747567e+01 1.000000e-06
      vertex 4.451846e+01 2.126134e+01 1.270000e+01
    endloop
  endfacet
  facet normal 0.000000e+00 0.000000e+00 -1.000000e+00
    outer loop
      vertex 4.351625e+01 2.120030e+01 1.000000e-06
      vertex 4.451846e+01 2.126134e+01 1.000000e-06
      vertex 4.380218e+01 1.747567e+01 1.000000e-06
    endloop
  endfacet
  facet normal 0.000000e+00 0.000000e+00 -1.000000e+00
    outer loop
      vertex 4.451846e+01 2.126134e+01 1.000000e-06
      vertex 4.351625e+01 2.120030e+01 1.000000e-06
      vertex 4.367375e+01 2.496242e+01 1.000000e-06
    endloop
  endfacet
  facet normal 0.000000e+00 0.000000e+00 -1.000000e+00
    outer loop
      vertex 4.126861e+01 2.830243e+01 1.000000e-06
      vertex 4.228677e+01 2.849631e+01 1.000000e-06
      vertex 4.266504e+01 2.483762e+01 1.000000e-06
    endloop
  endfacet
  facet normal 0.000000e+00 0.000000e+00 -1.000000e+00
    outer loop
      vertex 4.228677e+01 2.849631e+01 1.000000e-06
      vertex 4.126861e+01 2.830243e+01 1.000000e-06
      vertex 4.038863e+01 3.178395e+01 1.000000e-06
    endloop
  endfacet
  facet normal 0.000000e+00 0.000000e+00 -1.000000e+00
    outer loop
      vertex 3.698292e+01 3.439542e+01 1.000000e-06
      vertex 3.802172e+01 3.475204e+01 1.000000e-06
      vertex 3.935967e+01 3.151343e+01 1.000000e-06
    endloop
  endfacet
  facet normal 0.000000e+00 0.000000e+00 -1.000000e+00
    outer loop
      vertex 3.802172e+01 3.475204e+01 1.000000e-06
      vertex 3.698292e+01 3.439542e+01 1.000000e-06
      vertex 3.523880e+01 3.733415e+01 1.000000e-06
    endloop
  endfacet
  facet normal 0.000000e+00 0.000000e+00 -1.000000e+00
    outer loop
      vertex 3.105853e+01 3.891133e+01 1.000000e-06
      vertex 3.210217e+01 3.947268e+01 1.000000e-06
      vertex 3.419409e+01 3.688078e+01 1.000000e-06
    endloop
  endfacet
  facet normal 0.000000e+00 0.000000e+00 -1.000000e+00
    outer loop
      vertex 3.210217e+01 3.947268e+01 1.000000e-06
      vertex 3.105853e+01 3.891133e+01 1.000000e-06
      vertex 2.868183e+01 4.111982e+01 1.000000e-06
    endloop
  endfacet
  facet normal 0.000000e+00 0.000000e+00 -1.000000e+00
    outer loop
      vertex 2.404772e+01 4.142934e+01 1.000000e-06
      vertex 2.505420e+01 4.223884e+01 1.000000e-06
      vertex 2.764977e+01 4.043948e+01 1.000000e-06
    endloop
  endfacet
  facet normal 0.000000e+00 0.000000e+00 -1.000000e+00
    outer loop
      vertex 2.505420e+01 4.223884e+01 1.000000e-06
      vertex 2.404772e+01 4.142934e+01 1.000000e-06
      vertex 2.130031e+01 4.280465e+01 1.000000e-06
    endloop
  endfacet
  facet normal 0.000000e+00 0.000000e+00 -1.000000e+00
    outer loop
      vertex 1.660389e+01 4.171464e+01 1.000000e-06
      vertex 1.750403e+01 4.280465e+01 1.000000e-06
      vertex 2.033675e+01 4.185776e+01 1.000000e-06
    endloop
  endfacet
  facet normal 0.000000e+00 0.000000e+00 -1.000000e+00
    outer loop
      vertex 1.750403e+01 4.280465e+01 1.000000e-06
      vertex 1.660389e+01 4.171464e+01 1.000000e-06
      vertex 1.375014e+01 4.223884e+01 1.000000e-06
    endloop
  endfacet
  facet normal 0.000000e+00 0.000000e+00 -1.000000e+00
    outer loop
      vertex 9.420896e+00 3.974073e+01 1.000000e-06
      vertex 1.012250e+01 4.111982e+01 1.000000e-06
      vertex 1.293662e+01 4.100345e+01 1.000000e-06
    endloop
  endfacet
  facet normal 0.000000e+00 0.000000e+00 -1.000000e+00
    outer loop
      vertex 1.012250e+01 4.111982e+01 1.000000e-06
      vertex 9.420896e+00 3.974073e+01 1.000000e-06
      vertex 6.702166e+00 3.947268e+01 1.000000e-06
    endloop
  endfacet
  facet normal 0.000000e+00 0.000000e+00 -1.000000e+00
    outer loop
      vertex 3.168225e+00 3.569156e+01 1.000000e-06
      vertex 3.565536e+00 3.733415e+01 1.000000e-06
      vertex 6.139119e+00 3.795615e+01 1.000000e-06
    endloop
  endfacet
  facet normal 0.000000e+00 0.000000e+00 -1.000000e+00
    outer loop
      vertex 3.565536e+00 3.733415e+01 1.000000e-06
      vertex 3.168225e+00 3.569156e+01 1.000000e-06
      vertex 7.826633e-01 3.475204e+01 1.000000e-06
    endloop
  endfacet
  facet normal 0.000000e+00 0.000000e+00 -1.000000e+00
    outer loop
      vertex -1.571311e+00 2.994448e+01 1.000000e-06
      vertex -1.584295e+00 3.178395e+01 1.000000e-06
      vertex 5.778309e-01 3.299996e+01 1.000000e-06
    endloop
  endfacet
  facet normal 0.000000e+00 0.000000e+00 -1.000000e+00
    outer loop
      vertex -1.584295e+00 3.178395e+01 1.000000e-06
      vertex -1.571311e+00 2.994448e+01 1.000000e-06
      vertex -3.482435e+00 2.849631e+01 1.000000e-06
    endloop
  endfacet
  facet normal 0.000000e+00 0.000000e+00 -1.000000e+00
    outer loop
      vertex -4.355976e+00 2.303526e+01 1.000000e-06
      vertex -4.869366e+00 2.496242e+01 1.000000e-06
      vertex -3.228865e+00 2.659677e+01 1.000000e-06
    endloop
  endfacet
  facet normal 0.000000e+00 0.000000e+00 -1.000000e+00
    outer loop
      vertex -4.869366e+00 2.496242e+01 1.000000e-06
      vertex -4.355976e+00 2.303526e+01 1.000000e-06
      vertex -5.714130e+00 2.126134e+01 1.000000e-06
    endloop
  endfacet
  facet normal 0.000000e+00 0.000000e+00 -1.000000e+00
    outer loop
      vertex -4.926242e+00 1.560786e+01 1.000000e-06
      vertex -5.997834e+00 1.747567e+01 1.000000e-06
      vertex -4.926242e+00 1.934343e+01 1.000000e-06
    endloop
  endfacet
  facet normal 0.000000e+00 0.000000e+00 -1.000000e+00
    outer loop
      vertex -5.997834e+00 1.747567e+01 1.000000e-06
      vertex -4.926242e+00 1.560786e+01 1.000000e-06
      vertex -5.714130e+00 1.368995e+01 1.000000e-06
    endloop
  endfacet
  facet normal 0.000000e+00 0.000000e+00 -1.000000e+00
    outer loop
      vertex -3.228865e+00 8.354519e+00 1.000000e-06
      vertex -4.869366e+00 9.988867e+00 1.000000e-06
      vertex -4.355976e+00 1.191603e+01 1.000000e-06
    endloop
  endfacet
  facet normal 0.000000e+00 0.000000e+00 -1.000000e+00
    outer loop
      vertex -4.869366e+00 9.988867e+00 1.000000e-06
      vertex -3.228865e+00 8.354519e+00 1.000000e-06
      vertex -3.482435e+00 6.455023e+00 1.000000e-06
    endloop
  endfacet
  facet normal 0.000000e+00 0.000000e+00 -1.000000e+00
    outer loop
      vertex 5.778309e-01 1.951325e+00 1.000000e-06
      vertex -1.584295e+00 3.167336e+00 1.000000e-06
      vertex -1.571311e+00 5.006807e+00 1.000000e-06
    endloop
  endfacet
  facet normal 0.000000e+00 0.000000e+00 -1.000000e+00
    outer loop
      vertex -1.584295e+00 3.167336e+00 1.000000e-06
      vertex 5.778309e-01 1.951325e+00 1.000000e-06
      vertex 7.826633e-01 1.992516e-01 1.000000e-06
    endloop
  endfacet
  facet normal 0.000000e+00 0.000000e+00 -1.000000e+00
    outer loop
      vertex 6.139119e+00 -3.004865e+00 1.000000e-06
      vertex 3.565536e+00 -2.382858e+00 1.000000e-06
      vertex 3.168225e+00 -7.402744e-01 1.000000e-06
    endloop
  endfacet
  facet normal 0.000000e+00 0.000000e+00 -1.000000e+00
    outer loop
      vertex 3.565536e+00 -2.382858e+00 1.000000e-06
      vertex 6.139119e+00 -3.004865e+00 1.000000e-06
      vertex 6.702166e+00 -4.521391e+00 1.000000e-06
    endloop
  endfacet
  facet normal 0.000000e+00 0.000000e+00 -1.000000e+00
    outer loop
      vertex 1.293662e+01 -6.052160e+00 1.000000e-06
      vertex 1.012250e+01 -6.168528e+00 1.000000e-06
      vertex 9.420896e+00 -4.789446e+00 1.000000e-06
    endloop
  endfacet
  facet normal 0.000000e+00 0.000000e+00 -1.000000e+00
    outer loop
      vertex 1.012250e+01 -6.168528e+00 1.000000e-06
      vertex 1.293662e+01 -6.052160e+00 1.000000e-06
      vertex 1.375014e+01 -7.287501e+00 1.000000e-06
    endloop
  endfacet
  facet normal 0.000000e+00 0.000000e+00 -1.000000e+00
    outer loop
      vertex 2.033675e+01 -6.906468e+00 1.000000e-06
      vertex 1.750403e+01 -7.853309e+00 1.000000e-06
      vertex 1.660389e+01 -6.763356e+00 1.000000e-06
    endloop
  endfacet
  facet normal 0.000000e+00 0.000000e+00 -1.000000e+00
    outer loop
      vertex 1.750403e+01 -7.853309e+00 1.000000e-06
      vertex 2.033675e+01 -6.906468e+00 1.000000e-06
      vertex 2.130031e+01 -7.853309e+00 1.000000e-06
    endloop
  endfacet
  facet normal 0.000000e+00 0.000000e+00 -1.000000e+00
    outer loop
      vertex 2.764977e+01 -5.488192e+00 1.000000e-06
      vertex 2.505420e+01 -7.287501e+00 1.000000e-06
      vertex 2.404772e+01 -6.478054e+00 1.000000e-06
    endloop
  endfacet
  facet normal 0.000000e+00 0.000000e+00 -1.000000e+00
    outer loop
      vertex 2.505420e+01 -7.287501e+00 1.000000e-06
      vertex 2.764977e+01 -5.488192e+00 1.000000e-06
      vertex 2.868183e+01 -6.168528e+00 1.000000e-06
    endloop
  endfacet
  facet normal 0.000000e+00 0.000000e+00 -1.000000e+00
    outer loop
      vertex 3.419409e+01 -1.929494e+00 1.000000e-06
      vertex 3.210217e+01 -4.521391e+00 1.000000e-06
      vertex 3.105853e+01 -3.960039e+00 1.000000e-06
    endloop
  endfacet
  facet normal 0.000000e+00 0.000000e+00 -1.000000e+00
    outer loop
      vertex 3.210217e+01 -4.521391e+00 1.000000e-06
      vertex 3.419409e+01 -1.929494e+00 1.000000e-06
      vertex 3.523880e+01 -2.382858e+00 1.000000e-06
    endloop
  endfacet
  facet normal 0.000000e+00 0.000000e+00 -1.000000e+00
    outer loop
      vertex 3.935967e+01 3.437862e+00 1.000000e-06
      vertex 3.802172e+01 1.992516e-01 1.000000e-06
      vertex 3.698292e+01 5.558674e-01 1.000000e-06
    endloop
  endfacet
  facet normal 0.000000e+00 0.000000e+00 -1.000000e+00
    outer loop
      vertex 3.802172e+01 1.992516e-01 1.000000e-06
      vertex 3.935967e+01 3.437862e+00 1.000000e-06
      vertex 4.038863e+01 3.167336e+00 1.000000e-06
    endloop
  endfacet
  facet normal 0.000000e+00 0.000000e+00 -1.000000e+00
    outer loop
      vertex 4.266504e+01 1.011367e+01 1.000000e-06
      vertex 4.228677e+01 6.455023e+00 1.000000e-06
      vertex 4.126861e+01 6.648858e+00 1.000000e-06
    endloop
  endfacet
  facet normal 0.000000e+00 0.000000e+00 -1.000000e+00
    outer loop
      vertex 4.228677e+01 6.455023e+00 1.000000e-06
      vertex 4.266504e+01 1.011367e+01 1.000000e-06
      vertex 4.367375e+01 9.988867e+00 1.000000e-06
    endloop
  endfacet
  facet normal -0.000000e+00 -0.000000e+00 -1.000000e+00
    outer loop
      vertex 4.380218e+01 1.747567e+01 1.000000e-06
      vertex 4.451846e+01 1.368995e+01 1.000000e-06
      vertex 4.351625e+01 1.375099e+01 1.000000e-06
    endloop
  endfacet
  facet normal -0.000000e+00 -0.000000e+00 -1.000000e+00
    outer loop
      vertex 4.451846e+01 2.126134e+01 1.000000e-06
      vertex 4.480217e+01 1.747567e+01 1.000000e-06
      vertex 4.380218e+01 1.747567e+01 1.000000e-06
    endloop
  endfacet
  facet normal 0.000000e+00 0.000000e+00 -1.000000e+00
    outer loop
      vertex 4.451846e+01 1.368995e+01 1.000000e-06
      vertex 4.367375e+01 9.988867e+00 1.000000e-06
      vertex 4.351625e+01 1.375099e+01 1.000000e-06
    endloop
  endfacet
  facet normal -0.000000e+00 -0.000000e+00 -1.000000e+00
    outer loop
      vertex 4.351625e+01 1.375099e+01 1.000000e-06
      vertex 4.367375e+01 9.988867e+00 1.000000e-06
      vertex 4.266504e+01 1.011367e+01 1.000000e-06
    endloop
  endfacet
  facet normal 0.000000e+00 0.000000e+00 -1.000000e+00
    outer loop
      vertex 4.228677e+01 6.455023e+00 1.000000e-06
      vertex 4.038863e+01 3.167336e+00 1.000000e-06
      vertex 4.126861e+01 6.648858e+00 1.000000e-06
    endloop
  endfacet
  facet normal 0.000000e+00 0.000000e+00 -1.000000e+00
    outer loop
      vertex 4.126861e+01 6.648858e+00 1.000000e-06
      vertex 4.038863e+01 3.167336e+00 1.000000e-06
      vertex 3.935967e+01 3.437862e+00 1.000000e-06
    endloop
  endfacet
  facet normal 0.000000e+00 0.000000e+00 -1.000000e+00
    outer loop
      vertex 3.802172e+01 1.992516e-01 1.000000e-06
      vertex 3.523880e+01 -2.382858e+00 1.000000e-06
      vertex 3.698292e+01 5.558674e-01 1.000000e-06
    endloop
  endfacet
  facet normal 0.000000e+00 0.000000e+00 -1.000000e+00
    outer loop
      vertex 3.698292e+01 5.558674e-01 1.000000e-06
      vertex 3.523880e+01 -2.382858e+00 1.000000e-06
      vertex 3.419409e+01 -1.929494e+00 1.000000e-06
    endloop
  endfacet
  facet normal 0.000000e+00 0.000000e+00 -1.000000e+00
    outer loop
      vertex 3.210217e+01 -4.521391e+00 1.000000e-06
      vertex 2.868183e+01 -6.168528e+00 1.000000e-06
      vertex 3.105853e+01 -3.960039e+00 1.000000e-06
    endloop
  endfacet
  facet normal 0.000000e+00 0.000000e+00 -1.000000e+00
    outer loop
      vertex 3.105853e+01 -3.960039e+00 1.000000e-06
      vertex 2.868183e+01 -6.168528e+00 1.000000e-06
      vertex 2.764977e+01 -5.488192e+00 1.000000e-06
    endloop
  endfacet
  facet normal 0.000000e+00 0.000000e+00 -1.000000e+00
    outer loop
      vertex 2.505420e+01 -7.287501e+00 1.000000e-06
      vertex 2.130031e+01 -7.853309e+00 1.000000e-06
      vertex 2.404772e+01 -6.478054e+00 1.000000e-06
    endloop
  endfacet
  facet normal 0.000000e+00 0.000000e+00 -1.000000e+00
    outer loop
      vertex 2.404772e+01 -6.478054e+00 1.000000e-06
      vertex 2.130031e+01 -7.853309e+00 1.000000e-06
      vertex 2.033675e+01 -6.906468e+00 1.000000e-06
    endloop
  endfacet
  facet normal 0.000000e+00 0.000000e+00 -1.000000e+00
    outer loop
      vertex 1.750403e+01 -7.853309e+00 1.000000e-06
      vertex 1.375014e+01 -7.287501e+00 1.000000e-06
      vertex 1.660389e+01 -6.763356e+00 1.000000e-06
    endloop
  endfacet
  facet normal 0.000000e+00 0.000000e+00 -1.000000e+00
    outer loop
      vertex 1.660389e+01 -6.763356e+00 1.000000e-06
      vertex 1.375014e+01 -7.287501e+00 1.000000e-06
      vertex 1.293662e+01 -6.052160e+00 1.000000e-06
    endloop
  endfacet
  facet normal 0.000000e+00 0.000000e+00 -1.000000e+00
    outer loop
      vertex 1.012250e+01 -6.168528e+00 1.000000e-06
      vertex 6.702166e+00 -4.521391e+00 1.000000e-06
      vertex 9.420896e+00 -4.789446e+00 1.000000e-06
    endloop
  endfacet
  facet normal 0.000000e+00 0.000000e+00 -1.000000e+00
    outer loop
      vertex 9.420896e+00 -4.789446e+00 1.000000e-06
      vertex 6.702166e+00 -4.521391e+00 1.000000e-06
      vertex 6.139119e+00 -3.004865e+00 1.000000e-06
    endloop
  endfacet
  facet normal 0.000000e+00 0.000000e+00 -1.000000e+00
    outer loop
      vertex 3.565536e+00 -2.382858e+00 1.000000e-06
      vertex 7.826633e-01 1.992516e-01 1.000000e-06
      vertex 3.168225e+00 -7.402744e-01 1.000000e-06
    endloop
  endfacet
  facet normal 0.000000e+00 0.000000e+00 -1.000000e+00
    outer loop
      vertex 3.168225e+00 -7.402744e-01 1.000000e-06
      vertex 7.826633e-01 1.992516e-01 1.000000e-06
      vertex 5.778309e-01 1.951325e+00 1.000000e-06
    endloop
  endfacet
  facet normal 0.000000e+00 0.000000e+00 -1.000000e+00
    outer loop
      vertex -1.584295e+00 3.167336e+00 1.000000e-06
      vertex -3.482435e+00 6.455023e+00 1.000000e-06
      vertex -1.571311e+00 5.006807e+00 1.000000e-06
    endloop
  endfacet
  facet normal 0.000000e+00 0.000000e+00 -1.000000e+00
    outer loop
      vertex -1.571311e+00 5.006807e+00 1.000000e-06
      vertex -3.482435e+00 6.455023e+00 1.000000e-06
      vertex -3.228865e+00 8.354519e+00 1.000000e-06
    endloop
  endfacet
  facet normal 0.000000e+00 0.000000e+00 -1.000000e+00
    outer loop
      vertex -4.869366e+00 9.988867e+00 1.000000e-06
      vertex -5.714130e+00 1.368995e+01 1.000000e-06
      vertex -4.355976e+00 1.191603e+01 1.000000e-06
    endloop
  endfacet
  facet normal 0.000000e+00 0.000000e+00 -1.000000e+00
    outer loop
      vertex -4.355976e+00 1.191603e+01 1.000000e-06
      vertex -5.714130e+00 1.368995e+01 1.000000e-06
      vertex -4.926242e+00 1.560786e+01 1.000000e-06
    endloop
  endfacet
  facet normal 0.000000e+00 0.000000e+00 -1.000000e+00
    outer loop
      vertex -5.997834e+00 1.747567e+01 1.000000e-06
      vertex -5.714130e+00 2.126134e+01 1.000000e-06
      vertex -4.926242e+00 1.934343e+01 1.000000e-06
    endloop
  endfacet
  facet normal 0.000000e+00 0.000000e+00 -1.000000e+00
    outer loop
      vertex -4.926242e+00 1.934343e+01 1.000000e-06
      vertex -5.714130e+00 2.126134e+01 1.000000e-06
      vertex -4.355976e+00 2.303526e+01 1.000000e-06
    endloop
  endfacet
  facet normal 0.000000e+00 0.000000e+00 -1.000000e+00
    outer loop
      vertex -4.869366e+00 2.496242e+01 1.000000e-06
      vertex -3.482435e+00 2.849631e+01 1.000000e-06
      vertex -3.228865e+00 2.659677e+01 1.000000e-06
    endloop
  endfacet
  facet normal 0.000000e+00 0.000000e+00 -1.000000e+00
    outer loop
      vertex -3.228865e+00 2.659677e+01 1.000000e-06
      vertex -3.482435e+00 2.849631e+01 1.000000e-06
      vertex -1.571311e+00 2.994448e+01 1.000000e-06
    endloop
  endfacet
  facet normal 0.000000e+00 0.000000e+00 -1.000000e+00
    outer loop
      vertex -1.584295e+00 3.178395e+01 1.000000e-06
      vertex 7.826633e-01 3.475204e+01 1.000000e-06
      vertex 5.778309e-01 3.299996e+01 1.000000e-06
    endloop
  endfacet
  facet normal 0.000000e+00 0.000000e+00 -1.000000e+00
    outer loop
      vertex 5.778309e-01 3.299996e+01 1.000000e-06
      vertex 7.826633e-01 3.475204e+01 1.000000e-06
      vertex 3.168225e+00 3.569156e+01 1.000000e-06
    endloop
  endfacet
  facet normal 0.000000e+00 0.000000e+00 -1.000000e+00
    outer loop
      vertex 3.565536e+00 3.733415e+01 1.000000e-06
      vertex 6.702166e+00 3.947268e+01 1.000000e-06
      vertex 6.139119e+00 3.795615e+01 1.000000e-06
    endloop
  endfacet
  facet normal 0.000000e+00 0.000000e+00 -1.000000e+00
    outer loop
      vertex 6.139119e+00 3.795615e+01 1.000000e-06
      vertex 6.702166e+00 3.947268e+01 1.000000e-06
      vertex 9.420896e+00 3.974073e+01 1.000000e-06
    endloop
  endfacet
  facet normal 0.000000e+00 0.000000e+00 -1.000000e+00
    outer loop
      vertex 1.012250e+01 4.111982e+01 1.000000e-06
      vertex 1.375014e+01 4.223884e+01 1.000000e-06
      vertex 1.293662e+01 4.100345e+01 1.000000e-06
    endloop
  endfacet
  facet normal 0.000000e+00 0.000000e+00 -1.000000e+00
    outer loop
      vertex 1.293662e+01 4.100345e+01 1.000000e-06
      vertex 1.375014e+01 4.223884e+01 1.000000e-06
      vertex 1.660389e+01 4.171464e+01 1.000000e-06
    endloop
  endfacet
  facet normal 0.000000e+00 0.000000e+00 -1.000000e+00
    outer loop
      vertex 1.750403e+01 4.280465e+01 1.000000e-06
      vertex 2.130031e+01 4.280465e+01 1.000000e-06
      vertex 2.033675e+01 4.185776e+01 1.000000e-06
    endloop
  endfacet
  facet normal 0.000000e+00 0.000000e+00 -1.000000e+00
    outer loop
      vertex 2.033675e+01 4.185776e+01 1.000000e-06
      vertex 2.130031e+01 4.280465e+01 1.000000e-06
      vertex 2.404772e+01 4.142934e+01 1.000000e-06
    endloop
  endfacet
  facet normal 0.000000e+00 0.000000e+00 -1.000000e+00
    outer loop
      vertex 2.505420e+01 4.223884e+01 1.000000e-06
      vertex 2.868183e+01 4.111982e+01 1.000000e-06
      vertex 2.764977e+01 4.043948e+01 1.000000e-06
    endloop
  endfacet
  facet normal 0.000000e+00 0.000000e+00 -1.000000e+00
    outer loop
      vertex 2.764977e+01 4.043948e+01 1.000000e-06
      vertex 2.868183e+01 4.111982e+01 1.000000e-06
      vertex 3.105853e+01 3.891133e+01 1.000000e-06
    endloop
  endfacet
  facet normal 0.000000e+00 0.000000e+00 -1.000000e+00
    outer loop
      vertex 3.210217e+01 3.947268e+01 1.000000e-06
      vertex 3.523880e+01 3.733415e+01 1.000000e-06
      vertex 3.419409e+01 3.688078e+01 1.000000e-06
    endloop
  endfacet
  facet normal 0.000000e+00 0.000000e+00 -1.000000e+00
    outer loop
      vertex 3.419409e+01 3.688078e+01 1.000000e-06
      vertex 3.523880e+01 3.733415e+01 1.000000e-06
      vertex 3.698292e+01 3.439542e+01 1.000000e-06
    endloop
  endfacet
  facet normal 0.000000e+00 0.000000e+00 -1.000000e+00
    outer loop
      vertex 3.802172e+01 3.475204e+01 1.000000e-06
      vertex 4.038863e+01 3.178395e+01 1.000000e-06
      vertex 3.935967e+01 3.151343e+01 1.000000e-06
    endloop
  endfacet
  facet normal 0.000000e+00 0.000000e+00 -1.000000e+00
    outer loop
      vertex 3.935967e+01 3.151343e+01 1.000000e-06
      vertex 4.038863e+01 3.178395e+01 1.000000e-06
      vertex 4.126861e+01 2.830243e+01 1.000000e-06
    endloop
  endfacet
  facet normal 0.000000e+00 0.000000e+00 -1.000000e+00
    outer loop
      vertex 4.228677e+01 2.849631e+01 1.000000e-06
      vertex 4.367375e+01 2.496242e+01 1.000000e-06
      vertex 4.266504e+01 2.483762e+01 1.000000e-06
    endloop
  endfacet
  facet normal 0.000000e+00 0.000000e+00 -1.000000e+00
    outer loop
      vertex 4.266504e+01 2.483762e+01 1.000000e-06
      vertex 4.367375e+01 2.496242e+01 1.000000e-06
      vertex 4.351625e+01 2.120030e+01 1.000000e-06
    endloop
  endfacet
  facet normal 0.000000e+00 0.000000e+00 -1.000000e+00
    outer loop
      vertex 4.451846e+01 1.368995e+01 1.000000e-06
      vertex 4.380218e+01 1.747567e+01 1.000000e-06
      vertex 4.480217e+01 1.747567e+01 1.000000e-06
    endloop
  endfacet
  facet normal 0.000000e+00 0.000000e+00 1.000000e+00
    outer loop
      vertex 4.351625e+01 1.375099e+01 1.270000e+01
      vertex 4.451846e+01 1.368995e+01 1.270000e+01
      vertex 4.380218e+01 1.747567e+01 1.270000e+01
    endloop
  endfacet
  facet normal 0.000000e+00 0.000000e+00 1.000000e+00
    outer loop
      vertex 4.451846e+01 1.368995e+01 1.270000e+01
      vertex 4.351625e+01 1.375099e+01 1.270000e+01
      vertex 4.367375e+01 9.988867e+00 1.270000e+01
    endloop
  endfacet
  facet normal 0.000000e+00 0.000000e+00 1.000000e+00
    outer loop
      vertex 4.126861e+01 6.648858e+00 1.270000e+01
      vertex 4.228677e+01 6.455023e+00 1.270000e+01
      vertex 4.266504e+01 1.011367e+01 1.270000e+01
    endloop
  endfacet
  facet normal 0.000000e+00 0.000000e+00 1.000000e+00
    outer loop
      vertex 4.228677e+01 6.455023e+00 1.270000e+01
      vertex 4.126861e+01 6.648858e+00 1.270000e+01
      vertex 4.038863e+01 3.167336e+00 1.270000e+01
    endloop
  endfacet
  facet normal 0.000000e+00 0.000000e+00 1.000000e+00
    outer loop
      vertex 3.698292e+01 5.558674e-01 1.270000e+01
      vertex 3.802172e+01 1.992516e-01 1.270000e+01
      vertex 3.935967e+01 3.437862e+00 1.270000e+01
    endloop
  endfacet
  facet normal 0.000000e+00 0.000000e+00 1.000000e+00
    outer loop
      vertex 3.802172e+01 1.992516e-01 1.270000e+01
      vertex 3.698292e+01 5.558674e-01 1.270000e+01
      vertex 3.523880e+01 -2.382858e+00 1.270000e+01
    endloop
  endfacet
  facet normal 0.000000e+00 0.000000e+00 1.000000e+00
    outer loop
      vertex 3.105853e+01 -3.960039e+00 1.270000e+01
      vertex 3.210217e+01 -4.521391e+00 1.270000e+01
      vertex 3.419409e+01 -1.929494e+00 1.270000e+01
    endloop
  endfacet
  facet normal 0.000000e+00 0.000000e+00 1.000000e+00
    outer loop
      vertex 3.210217e+01 -4.521391e+00 1.270000e+01
      vertex 3.105853e+01 -3.960039e+00 1.270000e+01
      vertex 2.868183e+01 -6.168528e+00 1.270000e+01
    endloop
  endfacet
  facet normal 0.000000e+00 0.000000e+00 1.000000e+00
    outer loop
      vertex 2.404772e+01 -6.478054e+00 1.270000e+01
      vertex 2.505420e+01 -7.287501e+00 1.270000e+01
      vertex 2.764977e+01 -5.488192e+00 1.270000e+01
    endloop
  endfacet
  facet normal 0.000000e+00 0.000000e+00 1.000000e+00
    outer loop
      vertex 2.505420e+01 -7.287501e+00 1.270000e+01
      vertex 2.404772e+01 -6.478054e+00 1.270000e+01
      vertex 2.130031e+01 -7.853309e+00 1.270000e+01
    endloop
  endfacet
  facet normal 0.000000e+00 0.000000e+00 1.000000e+00
    outer loop
      vertex 1.660389e+01 -6.763356e+00 1.270000e+01
      vertex 1.750403e+01 -7.853309e+00 1.270000e+01
      vertex 2.033675e+01 -6.906468e+00 1.270000e+01
    endloop
  endfacet
  facet normal 0.000000e+00 0.000000e+00 1.000000e+00
    outer loop
      vertex 1.750403e+01 -7.853309e+00 1.270000e+01
      vertex 1.660389e+01 -6.763356e+00 1.270000e+01
      vertex 1.375014e+01 -7.287501e+00 1.270000e+01
    endloop
  endfacet
  facet normal 0.000000e+00 0.000000e+00 1.000000e+00
    outer loop
      vertex 9.420896e+00 -4.789446e+00 1.270000e+01
      vertex 1.012250e+01 -6.168528e+00 1.270000e+01
      vertex 1.293662e+01 -6.052160e+00 1.270000e+01
    endloop
  endfacet
  facet normal 0.000000e+00 0.000000e+00 1.000000e+00
    outer loop
      vertex 1.012250e+01 -6.168528e+00 1.270000e+01
      vertex 9.420896e+00 -4.789446e+00 1.270000e+01
      vertex 6.702166e+00 -4.521391e+00 1.270000e+01
    endloop
  endfacet
  facet normal 0.000000e+00 0.000000e+00 1.000000e+00
    outer loop
      vertex 3.168225e+00 -7.402744e-01 1.270000e+01
      vertex 3.565536e+00 -2.382858e+00 1.270000e+01
      vertex 6.139119e+00 -3.004865e+00 1.270000e+01
    endloop
  endfacet
  facet normal 0.000000e+00 0.000000e+00 1.000000e+00
    outer loop
      vertex 3.565536e+00 -2.382858e+00 1.270000e+01
      vertex 3.168225e+00 -7.402744e-01 1.270000e+01
      vertex 7.826633e-01 1.992516e-01 1.270000e+01
    endloop
  endfacet
  facet normal 0.000000e+00 0.000000e+00 1.000000e+00
    outer loop
      vertex -1.571311e+00 5.006807e+00 1.270000e+01
      vertex -1.584295e+00 3.167336e+00 1.270000e+01
      vertex 5.778309e-01 1.951325e+00 1.270000e+01
    endloop
  endfacet
  facet normal 0.000000e+00 0.000000e+00 1.000000e+00
    outer loop
      vertex -1.584295e+00 3.167336e+00 1.270000e+01
      vertex -1.571311e+00 5.006807e+00 1.270000e+01
      vertex -3.482435e+00 6.455023e+00 1.270000e+01
    endloop
  endfacet
  facet normal 0.000000e+00 0.000000e+00 1.000000e+00
    outer loop
      vertex -4.355976e+00 1.191603e+01 1.270000e+01
      vertex -4.869366e+00 9.988867e+00 1.270000e+01
      vertex -3.228865e+00 8.354519e+00 1.270000e+01
    endloop
  endfacet
  facet normal 0.000000e+00 0.000000e+00 1.000000e+00
    outer loop
      vertex -4.869366e+00 9.988867e+00 1.270000e+01
      vertex -4.355976e+00 1.191603e+01 1.270000e+01
      vertex -5.714130e+00 1.368995e+01 1.270000e+01
    endloop
  endfacet
  facet normal 0.000000e+00 0.000000e+00 1.000000e+00
    outer loop
      vertex -4.926242e+00 1.934343e+01 1.270000e+01
      vertex -5.997834e+00 1.747567e+01 1.270000e+01
      vertex -4.926242e+00 1.560786e+01 1.270000e+01
    endloop
  endfacet
  facet normal 0.000000e+00 0.000000e+00 1.000000e+00
    outer loop
      vertex -5.997834e+00 1.747567e+01 1.270000e+01
      vertex -4.926242e+00 1.934343e+01 1.270000e+01
      vertex -5.714130e+00 2.126134e+01 1.270000e+01
    endloop
  endfacet
  facet normal 0.000000e+00 0.000000e+00 1.000000e+00
    outer loop
      vertex -3.228865e+00 2.659677e+01 1.270000e+01
      vertex -4.869366e+00 2.496242e+01 1.270000e+01
      vertex -4.355976e+00 2.303526e+01 1.270000e+01
    endloop
  endfacet
  facet normal 0.000000e+00 0.000000e+00 1.000000e+00
    outer loop
      vertex -4.869366e+00 2.496242e+01 1.270000e+01
      vertex -3.228865e+00 2.659677e+01 1.270000e+01
      vertex -3.482435e+00 2.849631e+01 1.270000e+01
    endloop
  endfacet
  facet normal 0.000000e+00 0.000000e+00 1.000000e+00
    outer loop
      vertex 5.778309e-01 3.299996e+01 1.270000e+01
      vertex -1.584295e+00 3.178395e+01 1.270000e+01
      vertex -1.571311e+00 2.994448e+01 1.270000e+01
    endloop
  endfacet
  facet normal 0.000000e+00 0.000000e+00 1.000000e+00
    outer loop
      vertex -1.584295e+00 3.178395e+01 1.270000e+01
      vertex 5.778309e-01 3.299996e+01 1.270000e+01
      vertex 7.826633e-01 3.475204e+01 1.270000e+01
    endloop
  endfacet
  facet normal 0.000000e+00 0.000000e+00 1.000000e+00
    outer loop
      vertex 6.139119e+00 3.795615e+01 1.270000e+01
      vertex 3.565536e+00 3.733415e+01 1.270000e+01
      vertex 3.168225e+00 3.569156e+01 1.270000e+01
    endloop
  endfacet
  facet normal 0.000000e+00 0.000000e+00 1.000000e+00
    outer loop
      vertex 3.565536e+00 3.733415e+01 1.270000e+01
      vertex 6.139119e+00 3.795615e+01 1.270000e+01
      vertex 6.702166e+00 3.947268e+01 1.270000e+01
    endloop
  endfacet
  facet normal 0.000000e+00 0.000000e+00 1.000000e+00
    outer loop
      vertex 1.293662e+01 4.100345e+01 1.270000e+01
      vertex 1.012250e+01 4.111982e+01 1.270000e+01
      vertex 9.420896e+00 3.974073e+01 1.270000e+01
    endloop
  endfacet
  facet normal 0.000000e+00 0.000000e+00 1.000000e+00
    outer loop
      vertex 1.012250e+01 4.111982e+01 1.270000e+01
      vertex 1.293662e+01 4.100345e+01 1.270000e+01
      vertex 1.375014e+01 4.223884e+01 1.270000e+01
    endloop
  endfacet
  facet normal 0.000000e+00 0.000000e+00 1.000000e+00
    outer loop
      vertex 2.033675e+01 4.185776e+01 1.270000e+01
      vertex 1.750403e+01 4.280465e+01 1.270000e+01
      vertex 1.660389e+01 4.171464e+01 1.270000e+01
    endloop
  endfacet
  facet normal 0.000000e+00 0.000000e+00 1.000000e+00
    outer loop
      vertex 1.750403e+01 4.280465e+01 1.270000e+01
      vertex 2.033675e+01 4.185776e+01 1.270000e+01
      vertex 2.130031e+01 4.280465e+01 1.270000e+01
    endloop
  endfacet
  facet normal 0.000000e+00 0.000000e+00 1.000000e+00
    outer loop
      vertex 2.764977e+01 4.043948e+01 1.270000e+01
      vertex 2.505420e+01 4.223884e+01 1.270000e+01
      vertex 2.404772e+01 4.142934e+01 1.270000e+01
    endloop
  endfacet
  facet normal 0.000000e+00 0.000000e+00 1.000000e+00
    outer loop
      vertex 2.505420e+01 4.223884e+01 1.270000e+01
      vertex 2.764977e+01 4.043948e+01 1.270000e+01
      vertex 2.868183e+01 4.111982e+01 1.270000e+01
    endloop
  endfacet
  facet normal 0.000000e+00 0.000000e+00 1.000000e+00
    outer loop
      vertex 3.419409e+01 3.688078e+01 1.270000e+01
      vertex 3.210217e+01 3.947268e+01 1.270000e+01
      vertex 3.105853e+01 3.891133e+01 1.270000e+01
    endloop
  endfacet
  facet normal 0.000000e+00 0.000000e+00 1.000000e+00
    outer loop
      vertex 3.210217e+01 3.947268e+01 1.270000e+01
      vertex 3.419409e+01 3.688078e+01 1.270000e+01
      vertex 3.523880e+01 3.733415e+01 1.270000e+01
    endloop
  endfacet
  facet normal 0.000000e+00 0.000000e+00 1.000000e+00
    outer loop
      vertex 3.935967e+01 3.151343e+01 1.270000e+01
      vertex 3.802172e+01 3.475204e+01 1.270000e+01
      vertex 3.698292e+01 3.439542e+01 1.270000e+01
    endloop
  endfacet
  facet normal 0.000000e+00 0.000000e+00 1.000000e+00
    outer loop
      vertex 3.802172e+01 3.475204e+01 1.270000e+01
      vertex 3.935967e+01 3.151343e+01 1.270000e+01
      vertex 4.038863e+01 3.178395e+01 1.270000e+01
    endloop
  endfacet
  facet normal 0.000000e+00 0.000000e+00 1.000000e+00
    outer loop
      vertex 4.266504e+01 2.483762e+01 1.270000e+01
      vertex 4.228677e+01 2.849631e+01 1.270000e+01
      vertex 4.126861e+01 2.830243e+01 1.270000e+01
    endloop
  endfacet
  facet normal 0.000000e+00 0.000000e+00 1.000000e+00
    outer loop
      vertex 4.228677e+01 2.849631e+01 1.270000e+01
      vertex 4.266504e+01 2.483762e+01 1.270000e+01
      vertex 4.367375e+01 2.496242e+01 1.270000e+01
    endloop
  endfacet
  facet normal 0.000000e+00 0.000000e+00 1.000000e+00
    outer loop
      vertex 4.380218e+01 1.747567e+01 1.270000e+01
      vertex 4.451846e+01 2.126134e+01 1.270000e+01
      vertex 4.351625e+01 2.120030e+01 1.270000e+01
    endloop
  endfacet
  facet normal 0.000000e+00 0.000000e+00 1.000000e+00
    outer loop
      vertex 4.451846e+01 1.368995e+01 1.270000e+01
      vertex 4.480217e+01 1.747567e+01 1.270000e+01
      vertex 4.380218e+01 1.747567e+01 1.270000e+01
    endloop
  endfacet
  facet normal 0.000000e+00 0.000000e+00 1.000000e+00
    outer loop
      vertex 4.451846e+01 2.126134e+01 1.270000e+01
      vertex 4.367375e+01 2.496242e+01 1.270000e+01
      vertex 4.351625e+01 2.120030e+01 1.270000e+01
    endloop
  endfacet
  facet normal 0.000000e+00 0.000000e+00 1.000000e+00
    outer loop
      vertex 4.351625e+01 2.120030e+01 1.270000e+01
      vertex 4.367375e+01 2.496242e+01 1.270000e+01
      vertex 4.266504e+01 2.483762e+01 1.270000e+01
    endloop
  endfacet
  facet normal 0.000000e+00 0.000000e+00 1.000000e+00
    outer loop
      vertex 4.228677e+01 2.849631e+01 1.270000e+01
      vertex 4.038863e+01 3.178395e+01 1.270000e+01
      vertex 4.126861e+01 2.830243e+01 1.270000e+01
    endloop
  endfacet
  facet normal 0.000000e+00 0.000000e+00 1.000000e+00
    outer loop
      vertex 4.126861e+01 2.830243e+01 1.270000e+01
      vertex 4.038863e+01 3.178395e+01 1.270000e+01
      vertex 3.935967e+01 3.151343e+01 1.270000e+01
    endloop
  endfacet
  facet normal 0.000000e+00 0.000000e+00 1.000000e+00
    outer loop
      vertex 3.802172e+01 3.475204e+01 1.270000e+01
      vertex 3.523880e+01 3.733415e+01 1.270000e+01
      vertex 3.698292e+01 3.439542e+01 1.270000e+01
    endloop
  endfacet
  facet normal 0.000000e+00 0.000000e+00 1.000000e+00
    outer loop
      vertex 3.698292e+01 3.439542e+01 1.270000e+01
      vertex 3.523880e+01 3.733415e+01 1.270000e+01
      vertex 3.419409e+01 3.688078e+01 1.270000e+01
    endloop
  endfacet
  facet normal 0.000000e+00 0.000000e+00 1.000000e+00
    outer loop
      vertex 3.210217e+01 3.947268e+01 1.270000e+01
      vertex 2.868183e+01 4.111982e+01 1.270000e+01
      vertex 3.105853e+01 3.891133e+01 1.270000e+01
    endloop
  endfacet
  facet normal 0.000000e+00 0.000000e+00 1.000000e+00
    outer loop
      vertex 3.105853e+01 3.891133e+01 1.270000e+01
      vertex 2.868183e+01 4.111982e+01 1.270000e+01
      vertex 2.764977e+01 4.043948e+01 1.270000e+01
    endloop
  endfacet
  facet normal 0.000000e+00 0.000000e+00 1.000000e+00
    outer loop
      vertex 2.505420e+01 4.223884e+01 1.270000e+01
      vertex 2.130031e+01 4.280465e+01 1.270000e+01
      vertex 2.404772e+01 4.142934e+01 1.270000e+01
    endloop
  endfacet
  facet normal 0.000000e+00 0.000000e+00 1.000000e+00
    outer loop
      vertex 2.404772e+01 4.142934e+01 1.270000e+01
      vertex 2.130031e+01 4.280465e+01 1.270000e+01
      vertex 2.033675e+01 4.185776e+01 1.270000e+01
    endloop
  endfacet
  facet normal 0.000000e+00 0.000000e+00 1.000000e+00
    outer loop
      vertex 1.750403e+01 4.280465e+01 1.270000e+01
      vertex 1.375014e+01 4.223884e+01 1.270000e+01
      vertex 1.660389e+01 4.171464e+01 1.270000e+01
    endloop
  endfacet
  facet normal 0.000000e+00 0.000000e+00 1.000000e+00
    outer loop
      vertex 1.660389e+01 4.171464e+01 1.270000e+01
      vertex 1.375014e+01 4.223884e+01 1.270000e+01
      vertex 1.293662e+01 4.100345e+01 1.270000e+01
    endloop
  endfacet
  facet normal 0.000000e+00 0.000000e+00 1.000000e+00
    outer loop
      vertex 1.012250e+01 4.111982e+01 1.270000e+01
      vertex 6.702166e+00 3.947268e+01 1.270000e+01
      vertex 9.420896e+00 3.974073e+01 1.270000e+01
    endloop
  endfacet
  facet normal 0.000000e+00 0.000000e+00 1.000000e+00
    outer loop
      vertex 9.420896e+00 3.974073e+01 1.270000e+01
      vertex 6.702166e+00 3.947268e+01 1.270000e+01
      vertex 6.139119e+00 3.795615e+01 1.270000e+01
    endloop
  endfacet
  facet normal 0.000000e+00 0.000000e+00 1.000000e+00
    outer loop
      vertex 3.565536e+00 3.733415e+01 1.270000e+01
      vertex 7.826633e-01 3.475204e+01 1.270000e+01
      vertex 3.168225e+00 3.569156e+01 1.270000e+01
    endloop
  endfacet
  facet normal 0.000000e+00 0.000000e+00 1.000000e+00
    outer loop
      vertex 3.168225e+00 3.569156e+01 1.270000e+01
      vertex 7.826633e-01 3.475204e+01 1.270000e+01
      vertex 5.778309e-01 3.299996e+01 1.270000e+01
    endloop
  endfacet
  facet normal 0.000000e+00 0.000000e+00 1.000000e+00
    outer loop
      vertex -1.584295e+00 3.178395e+01 1.270000e+01
      vertex -3.482435e+00 2.849631e+01 1.270000e+01
      vertex -1.571311e+00 2.994448e+01 1.270000e+01
    endloop
  endfacet
  facet normal 0.000000e+00 0.000000e+00 1.000000e+00
    outer loop
      vertex -1.571311e+00 2.994448e+01 1.270000e+01
      vertex -3.482435e+00 2.849631e+01 1.270000e+01
      vertex -3.228865e+00 2.659677e+01 1.270000e+01
    endloop
  endfacet
  facet normal 0.000000e+00 0.000000e+00 1.000000e+00
    outer loop
      vertex -4.869366e+00 2.496242e+01 1.270000e+01
      vertex -5.714130e+00 2.126134e+01 1.270000e+01
      vertex -4.355976e+00 2.303526e+01 1.270000e+01
    endloop
  endfacet
  facet normal 0.000000e+00 0.000000e+00 1.000000e+00
    outer loop
      vertex -4.355976e+00 2.303526e+01 1.270000e+01
      vertex -5.714130e+00 2.126134e+01 1.270000e+01
      vertex -4.926242e+00 1.934343e+01 1.270000e+01
    endloop
  endfacet
  facet normal 0.000000e+00 0.000000e+00 1.000000e+00
    outer loop
      vertex -5.997834e+00 1.747567e+01 1.270000e+01
      vertex -5.714130e+00 1.368995e+01 1.270000e+01
      vertex -4.926242e+00 1.560786e+01 1.270000e+01
    endloop
  endfacet
  facet normal 0.000000e+00 0.000000e+00 1.000000e+00
    outer loop
      vertex -4.926242e+00 1.560786e+01 1.270000e+01
      vertex -5.714130e+00 1.368995e+01 1.270000e+01
      vertex -4.355976e+00 1.191603e+01 1.270000e+01
    endloop
  endfacet
  facet normal 0.000000e+00 0.000000e+00 1.000000e+00
    outer loop
      vertex -4.869366e+00 9.988867e+00 1.270000e+01
      vertex -3.482435e+00 6.455023e+00 1.270000e+01
      vertex -3.228865e+00 8.354519e+00 1.270000e+01
    endloop
  endfacet
  facet normal 0.000000e+00 0.000000e+00 1.000000e+00
    outer loop
      vertex -3.228865e+00 8.354519e+00 1.270000e+01
      vertex -3.482435e+00 6.455023e+00 1.270000e+01
      vertex -1.571311e+00 5.006807e+00 1.270000e+01
    endloop
  endfacet
  facet normal 0.000000e+00 0.000000e+00 1.000000e+00
    outer loop
      vertex -1.584295e+00 3.167336e+00 1.270000e+01
      vertex 7.826633e-01 1.992516e-01 1.270000e+01
      vertex 5.778309e-01 1.951325e+00 1.270000e+01
    endloop
  endfacet
  facet normal 0.000000e+00 0.000000e+00 1.000000e+00
    outer loop
      vertex 5.778309e-01 1.951325e+00 1.270000e+01
      vertex 7.826633e-01 1.992516e-01 1.270000e+01
      vertex 3.168225e+00 -7.402744e-01 1.270000e+01
    endloop
  endfacet
  facet normal 0.000000e+00 0.000000e+00 1.000000e+00
    outer loop
      vertex 3.565536e+00 -2.382858e+00 1.270000e+01
      vertex 6.702166e+00 -4.521391e+00 1.270000e+01
      vertex 6.139119e+00 -3.004865e+00 1.270000e+01
    endloop
  endfacet
  facet normal 0.000000e+00 0.000000e+00 1.000000e+00
    outer loop
      vertex 6.139119e+00 -3.004865e+00 1.270000e+01
      vertex 6.702166e+00 -4.521391e+00 1.270000e+01
      vertex 9.420896e+00 -4.789446e+00 1.270000e+01
    endloop
  endfacet
  facet normal 0.000000e+00 0.000000e+00 1.000000e+00
    outer loop
      vertex 1.012250e+01 -6.168528e+00 1.270000e+01
      vertex 1.375014e+01 -7.287501e+00 1.270000e+01
      vertex 1.293662e+01 -6.052160e+00 1.270000e+01
    endloop
  endfacet
  facet normal 0.000000e+00 0.000000e+00 1.000000e+00
    outer loop
      vertex 1.293662e+01 -6.052160e+00 1.270000e+01
      vertex 1.375014e+01 -7.287501e+00 1.270000e+01
      vertex 1.660389e+01 -6.763356e+00 1.270000e+01
    endloop
  endfacet
  facet normal 0.000000e+00 0.000000e+00 1.000000e+00
    outer loop
      vertex 1.750403e+01 -7.853309e+00 1.270000e+01
      vertex 2.130031e+01 -7.853309e+00 1.270000e+01
      vertex 2.033675e+01 -6.906468e+00 1.270000e+01
    endloop
  endfacet
  facet normal 0.000000e+00 0.000000e+00 1.000000e+00
    outer loop
      vertex 2.033675e+01 -6.906468e+00 1.270000e+01
      vertex 2.130031e+01 -7.853309e+00 1.270000e+01
      vertex 2.404772e+01 -6.478054e+00 1.270000e+01
    endloop
  endfacet
  facet normal 0.000000e+00 0.000000e+00 1.000000e+00
    outer loop
      vertex 2.505420e+01 -7.287501e+00 1.270000e+01
      vertex 2.868183e+01 -6.168528e+00 1.270000e+01
      vertex 2.764977e+01 -5.488192e+00 1.270000e+01
    endloop
  endfacet
  facet normal 0.000000e+00 0.000000e+00 1.000000e+00
    outer loop
      vertex 2.764977e+01 -5.488192e+00 1.270000e+01
      vertex 2.868183e+01 -6.168528e+00 1.270000e+01
      vertex 3.105853e+01 -3.960039e+00 1.270000e+01
    endloop
  endfacet
  facet normal 0.000000e+00 0.000000e+00 1.000000e+00
    outer loop
      vertex 3.210217e+01 -4.521391e+00 1.270000e+01
      vertex 3.523880e+01 -2.382858e+00 1.270000e+01
      vertex 3.419409e+01 -1.929494e+00 1.270000e+01
    endloop
  endfacet
  facet normal 0.000000e+00 0.000000e+00 1.000000e+00
    outer loop
      vertex 3.419409e+01 -1.929494e+00 1.270000e+01
      vertex 3.523880e+01 -2.382858e+00 1.270000e+01
      vertex 3.698292e+01 5.558674e-01 1.270000e+01
    endloop
  endfacet
  facet normal 0.000000e+00 0.000000e+00 1.000000e+00
    outer loop
      vertex 3.802172e+01 1.992516e-01 1.270000e+01
      vertex 4.038863e+01 3.167336e+00 1.270000e+01
      vertex 3.935967e+01 3.437862e+00 1.270000e+01
    endloop
  endfacet
  facet normal 0.000000e+00 0.000000e+00 1.000000e+00
    outer loop
      vertex 3.935967e+01 3.437862e+00 1.270000e+01
      vertex 4.038863e+01 3.167336e+00 1.270000e+01
      vertex 4.126861e+01 6.648858e+00 1.270000e+01
    endloop
  endfacet
  facet normal 0.000000e+00 0.000000e+00 1.000000e+00
    outer loop
      vertex 4.228677e+01 6.455023e+00 1.270000e+01
      vertex 4.367375e+01 9.988867e+00 1.270000e+01
      vertex 4.266504e+01 1.011367e+01 1.270000e+01
    endloop
  endfacet
  facet normal 0.000000e+00 0.000000e+00 1.000000e+00
    outer loop
      vertex 4.266504e+01 1.011367e+01 1.270000e+01
      vertex 4.367375e+01 9.988867e+00 1.270000e+01
      vertex 4.351625e+01 1.375099e+01 1.270000e+01
    endloop
  endfacet
  facet normal 0.000000e+00 0.000000e+00 1.000000e+00
    outer loop
      vertex 4.380218e+01 1.747567e+01 1.270000e+01
      vertex 4.480217e+01 1.747567e+01 1.270000e+01
      vertex 4.451846e+01 2.126134e+01 1.270000e+01
    endloop
  endfacet
endsolid Default
