solid Default
  facet normal 1.000000e+00 0.000000e+00 0.000000e+00
    outer loop
      vertex -1.334299e+01 -1.334297e+01 2.777960e+01
      vertex -1.334299e+01 -1.334297e+01 0.000000e+00
      vertex -1.334299e+01 1.334297e+01 2.777960e+01
    endloop
  endfacet
  facet normal 1.000000e+00 0.000000e+00 0.000000e+00
    outer loop
      vertex -1.334299e+01 -1.334297e+01 0.000000e+00
      vertex -1.334299e+01 1.334297e+01 0.000000e+00
      vertex -1.334299e+01 1.334297e+01 2.777960e+01
    endloop
  endfacet
  facet normal 0.000000e+00 -1.000000e+00 0.000000e+00
    outer loop
      vertex -1.334299e+01 1.334297e+01 2.777960e+01
      vertex -1.334299e+01 1.334297e+01 0.000000e+00
      vertex 1.334294e+01 1.334297e+01 2.777960e+01
    endloop
  endfacet
  facet normal 0.000000e+00 -1.000000e+00 0.000000e+00
    outer loop
      vertex -1.334299e+01 1.334297e+01 0.000000e+00
      vertex 1.334294e+01 1.334297e+01 0.000000e+00
      vertex 1.334294e+01 1.334297e+01 2.777960e+01
    endloop
  endfacet
  facet normal -1.000000e+00 -0.000000e+00 -0.000000e+00
    outer loop
      vertex 1.334294e+01 1.334297e+01 2.777960e+01
      vertex 1.334294e+01 1.334297e+01 0.000000e+00
      vertex 1.334294e+01 -1.334297e+01 2.777960e+01
    endloop
  endfacet
  facet normal -1.000000e+00 0.000000e+00 0.000000e+00
    outer loop
      vertex 1.334294e+01 1.334297e+01 0.000000e+00
      vertex 1.334294e+01 -1.334297e+01 0.000000e+00
      vertex 1.334294e+01 -1.334297e+01 2.777960e+01
    endloop
  endfacet
  facet normal 0.000000e+00 1.000000e+00 0.000000e+00
    outer loop
      vertex 1.334294e+01 -1.334297e+01 2.777960e+01
      vertex 1.334294e+01 -1.334297e+01 0.000000e+00
      vertex -1.334299e+01 -1.334297e+01 2.777960e+01
    endloop
  endfacet
  facet normal 0.000000e+00 1.000000e+00 0.000000e+00
    outer loop
      vertex 1.334294e+01 -1.334297e+01 0.000000e+00
      vertex -1.334299e+01 -1.334297e+01 0.000000e+00
      vertex -1.334299e+01 -1.334297e+01 2.777960e+01
    endloop
  endfacet
  facet normal 1.000000e+00 0.000000e+00 0.000000e+00
    outer loop
      vertex 1.388980e+01 -1.388980e+01 2.777960e+01
      vertex 1.388980e+01 -1.388980e+01 0.000000e+00
      vertex 1.388980e+01 1.388980e+01 2.777960e+01
    endloop
  endfacet
  facet normal 1.000000e+00 0.000000e+00 0.000000e+00
    outer loop
      vertex 1.388980e+01 -1.388980e+01 0.000000e+00
      vertex 1.388980e+01 1.388980e+01 0.000000e+00
      vertex 1.388980e+01 1.388980e+01 2.777960e+01
    endloop
  endfacet
  facet normal 0.000000e+00 -1.000000e+00 0.000000e+00
    outer loop
      vertex -1.388980e+01 -1.388980e+01 2.777960e+01
      vertex -1.388980e+01 -1.388980e+01 0.000000e+00
      vertex 1.388980e+01 -1.388980e+01 2.777960e+01
    endloop
  endfacet
  facet normal 0.000000e+00 -1.000000e+00 0.000000e+00
    outer loop
      vertex -1.388980e+01 -1.388980e+01 0.000000e+00
      vertex 1.388980e+01 -1.388980e+01 0.000000e+00
      vertex 1.388980e+01 -1.388980e+01 2.777960e+01
    endloop
  endfacet
  facet normal -1.000000e+00 -0.000000e+00 -0.000000e+00
    outer loop
      vertex -1.388980e+01 1.388980e+01 2.777960e+01
      vertex -1.388980e+01 1.388980e+01 0.000000e+00
      vertex -1.388980e+01 -1.388980e+01 2.777960e+01
    endloop
  endfacet
  facet normal -1.000000e+00 0.000000e+00 0.000000e+00
    outer loop
      vertex -1.388980e+01 1.388980e+01 0.000000e+00
      vertex -1.388980e+01 -1.388980e+01 0.000000e+00
      vertex -1.388980e+01 -1.388980e+01 2.777960e+01
    endloop
  endfacet
  facet normal 0.000000e+00 1.000000e+00 0.000000e+00
    outer loop
      vertex 1.388980e+01 1.388980e+01 2.777960e+01
      vertex 1.388980e+01 1.388980e+01 0.000000e+00
      vertex -1.388980e+01 1.388980e+01 2.777960e+01
    endloop
  endfacet
  facet normal 0.000000e+00 1.000000e+00 0.000000e+00
    outer loop
      vertex 1.388980e+01 1.388980e+01 0.000000e+00
      vertex -1.388980e+01 1.388980e+01 0.000000e+00
      vertex -1.388980e+01 1.388980e+01 2.777960e+01
    endloop
  endfacet
  facet normal 0.000000e+00 0.000000e+00 1.000000e+00
    outer loop
      vertex -1.334299e+01 1.334297e+01 2.777960e+01
      vertex -1.388980e+01 -1.388980e+01 2.777960e+01
      vertex -1.334299e+01 -1.334297e+01 2.777960e+01
    endloop
  endfacet
  facet normal 0.000000e+00 0.000000e+00 1.000000e+00
    outer loop
      vertex -1.388980e+01 -1.388980e+01 2.777960e+01
      vertex -1.334299e+01 1.334297e+01 2.777960e+01
      vertex -1.388980e+01 1.388980e+01 2.777960e+01
    endloop
  endfacet
  facet normal 0.000000e+00 0.000000e+00 1.000000e+00
    outer loop
      vertex 1.334294e+01 -1.334297e+01 2.777960e+01
      vertex 1.388980e+01 -1.388980e+01 2.777960e+01
      vertex 1.334294e+01 1.334297e+01 2.777960e+01
    endloop
  endfacet
  facet normal 0.000000e+00 0.000000e+00 1.000000e+00
    outer loop
      vertex 1.334294e+01 -1.334297e+01 2.777960e+01
      vertex -1.334299e+01 -1.334297e+01 2.777960e+01
      vertex 1.388980e+01 -1.388980e+01 2.777960e+01
    endloop
  endfacet
  facet normal 0.000000e+00 0.000000e+00 1.000000e+00
    outer loop
      vertex 1.388980e+01 -1.388980e+01 2.777960e+01
      vertex 1.388980e+01 1.388980e+01 2.777960e+01
      vertex 1.334294e+01 1.334297e+01 2.777960e+01
    endloop
  endfacet
  facet normal 0.000000e+00 0.000000e+00 1.000000e+00
    outer loop
      vertex 1.388980e+01 1.388980e+01 2.777960e+01
      vertex -1.388980e+01 1.388980e+01 2.777960e+01
      vertex 1.334294e+01 1.334297e+01 2.777960e+01
    endloop
  endfacet
  facet normal 0.000000e+00 0.000000e+00 1.000000e+00
    outer loop
      vertex 1.334294e+01 1.334297e+01 2.777960e+01
      vertex -1.388980e+01 1.388980e+01 2.777960e+01
      vertex -1.334299e+01 1.334297e+01 2.777960e+01
    endloop
  endfacet
  facet normal 0.000000e+00 0.000000e+00 1.000000e+00
    outer loop
      vertex -1.388980e+01 -1.388980e+01 2.777960e+01
      vertex 1.388980e+01 -1.388980e+01 2.777960e+01
      vertex -1.334299e+01 -1.334297e+01 2.777960e+01
    endloop
  endfacet
  facet normal 0.000000e+00 0.000000e+00 -1.000000e+00
    outer loop
      vertex -1.334299e+01 -1.334297e+01 0.000000e+00
      vertex -1.388980e+01 -1.388980e+01 0.000000e+00
      vertex -1.334299e+01 1.334297e+01 0.000000e+00
    endloop
  endfacet
  facet normal 0.000000e+00 0.000000e+00 -1.000000e+00
    outer loop
      vertex -1.334299e+01 -1.334297e+01 0.000000e+00
      vertex 1.334294e+01 -1.334297e+01 0.000000e+00
      vertex -1.388980e+01 -1.388980e+01 0.000000e+00
    endloop
  endfacet
  facet normal 0.000000e+00 0.000000e+00 -1.000000e+00
    outer loop
      vertex -1.388980e+01 -1.388980e+01 0.000000e+00
      vertex 1.334294e+01 -1.334297e+01 0.000000e+00
      vertex 1.388980e+01 -1.388980e+01 0.000000e+00
    endloop
  endfacet
  facet normal 0.000000e+00 0.000000e+00 -1.000000e+00
    outer loop
      vertex -1.334299e+01 1.334297e+01 0.000000e+00
      vertex 1.388980e+01 1.388980e+01 0.000000e+00
      vertex 1.334294e+01 1.334297e+01 0.000000e+00
    endloop
  endfacet
  facet normal 0.000000e+00 0.000000e+00 -1.000000e+00
    outer loop
      vertex -1.388980e+01 -1.388980e+01 0.000000e+00
      vertex -1.388980e+01 1.388980e+01 0.000000e+00
      vertex -1.334299e+01 1.334297e+01 0.000000e+00
    endloop
  endfacet
  facet normal -0.000000e+00 -0.000000e+00 -1.000000e+00
    outer loop
      vertex 1.388980e+01 1.388980e+01 0.000000e+00
      vertex 1.388980e+01 -1.388980e+01 0.000000e+00
      vertex 1.334294e+01 1.334297e+01 0.000000e+00
    endloop
  endfacet
  facet normal -0.000000e+00 -0.000000e+00 -1.000000e+00
    outer loop
      vertex 1.334294e+01 1.334297e+01 0.000000e+00
      vertex 1.388980e+01 -1.388980e+01 0.000000e+00
      vertex 1.334294e+01 -1.334297e+01 0.000000e+00
    endloop
  endfacet
  facet normal 0.000000e+00 0.000000e+00 -1.000000e+00
    outer loop
      vertex -1.334299e+01 1.334297e+01 0.000000e+00
      vertex -1.388980e+01 1.388980e+01 0.000000e+00
      vertex 1.388980e+01 1.388980e+01 0.000000e+00
    endloop
  endfacet
endsolid Default
