solid Default
  facet normal 0.000000e+00 0.000000e+00 -1.000000e+00
    outer loop
      vertex 1.499999e+01 1.499999e+01 0.000000e+00
      vertex 1.499999e+01 -1.499999e+01 0.000000e+00
      vertex -1.499999e+01 -1.499999e+01 0.000000e+00
    endloop
  endfacet
  facet normal 0.000000e+00 0.000000e+00 -1.000000e+00
    outer loop
      vertex 1.499999e+01 1.499999e+01 0.000000e+00
      vertex -1.499999e+01 -1.499999e+01 0.000000e+00
      vertex -1.499999e+01 1.500000e+01 0.000000e+00
    endloop
  endfacet
  facet normal 0.000000e+00 0.000000e+00 1.000000e+00
    outer loop
      vertex 1.500000e+01 1.499998e+01 3.000000e+01
      vertex -1.499999e+01 1.499999e+01 3.000000e+01
      vertex -1.500000e+01 -1.499999e+01 3.000000e+01
    endloop
  endfacet
  facet normal 0.000000e+00 0.000000e+00 1.000000e+00
    outer loop
      vertex 1.500000e+01 1.499998e+01 3.000000e+01
      vertex -1.500000e+01 -1.499999e+01 3.000000e+01
      vertex 1.499998e+01 -1.500000e+01 3.000000e+01
    endloop
  endfacet
  facet normal 1.000000e+00 -5.722048e-07 -2.384187e-07
    outer loop
      vertex 1.499999e+01 1.499999e+01 0.000000e+00
      vertex 1.500000e+01 1.499998e+01 3.000000e+01
      vertex 1.499998e+01 -1.500000e+01 3.000000e+01
    endloop
  endfacet
  facet normal 1.000000e+00 0.000000e+00 3.337860e-07
    outer loop
      vertex 1.499999e+01 1.499999e+01 0.000000e+00
      vertex 1.499998e+01 -1.500000e+01 3.000000e+01
      vertex 1.499999e+01 -1.499999e+01 0.000000e+00
    endloop
  endfacet
  facet normal -4.768375e-07 -1.000000e+00 -2.861024e-07
    outer loop
      vertex 1.499999e+01 -1.499999e+01 0.000000e+00
      vertex 1.499998e+01 -1.500000e+01 3.000000e+01
      vertex -1.500000e+01 -1.499999e+01 3.000000e+01
    endloop
  endfacet
  facet normal -9.536748e-08 -1.000000e+00 9.536742e-08
    outer loop
      vertex 1.499999e+01 -1.499999e+01 0.000000e+00
      vertex -1.500000e+01 -1.499999e+01 3.000000e+01
      vertex -1.499999e+01 -1.499999e+01 0.000000e+00
    endloop
  endfacet
  facet normal -1.000000e+00 2.384187e-07 -1.430512e-07
    outer loop
      vertex -1.499999e+01 -1.499999e+01 0.000000e+00
      vertex -1.500000e+01 -1.499999e+01 3.000000e+01
      vertex -1.499999e+01 1.499999e+01 3.000000e+01
    endloop
  endfacet
  facet normal -1.000000e+00 2.384187e-07 -1.430511e-07
    outer loop
      vertex -1.499999e+01 -1.499999e+01 0.000000e+00
      vertex -1.499999e+01 1.499999e+01 3.000000e+01
      vertex -1.499999e+01 1.500000e+01 0.000000e+00
    endloop
  endfacet
  facet normal 2.384187e-07 1.000000e+00 2.384185e-07
    outer loop
      vertex 1.500000e+01 1.499998e+01 3.000000e+01
      vertex 1.499999e+01 1.499999e+01 0.000000e+00
      vertex -1.499999e+01 1.500000e+01 0.000000e+00
    endloop
  endfacet
  facet normal 2.861024e-07 1.000000e+00 1.907349e-07
    outer loop
      vertex 1.500000e+01 1.499998e+01 3.000000e+01
      vertex -1.499999e+01 1.500000e+01 0.000000e+00
      vertex -1.499999e+01 1.499999e+01 3.000000e+01
    endloop
  endfacet
endsolid Default
